<svg width="5000" height="5000" viewBox="0 0 5000 5000" fill="none" xmlns="http://www.w3.org/2000/svg">
<g clip-path="url(#clip0_63_10)">
<g clip-path="url(#paint0_diamond_63_10_clip_path)" data-figma-skip-parse="true"><g transform="matrix(4.95515e-08 -1.792 3.92117 1.2147e-07 2496 3576)"><rect x="0" y="0" width="799.665" height="640.88" fill="url(#paint0_diamond_63_10)" opacity="1" shape-rendering="crispEdges"/><rect x="0" y="0" width="799.665" height="640.88" transform="scale(1 -1)" fill="url(#paint0_diamond_63_10)" opacity="1" shape-rendering="crispEdges"/><rect x="0" y="0" width="799.665" height="640.88" transform="scale(-1 1)" fill="url(#paint0_diamond_63_10)" opacity="1" shape-rendering="crispEdges"/><rect x="0" y="0" width="799.665" height="640.88" transform="scale(-1)" fill="url(#paint0_diamond_63_10)" opacity="1" shape-rendering="crispEdges"/></g></g><path d="M-16 2712L5008 3656V5008H-16V2712Z" data-figma-gradient-fill="{&#34;type&#34;:&#34;GRADIENT_DIAMOND&#34;,&#34;stops&#34;:[{&#34;color&#34;:{&#34;r&#34;:0.81568628549575806,&#34;g&#34;:0.52941179275512695,&#34;b&#34;:0.0,&#34;a&#34;:1.0},&#34;position&#34;:0.0},{&#34;color&#34;:{&#34;r&#34;:0.41568627953529358,&#34;g&#34;:0.26979640126228333,&#34;b&#34;:0.0,&#34;a&#34;:0.0},&#34;position&#34;:1.0}],&#34;stopsVar&#34;:[{&#34;color&#34;:{&#34;r&#34;:0.81568628549575806,&#34;g&#34;:0.52941179275512695,&#34;b&#34;:0.0,&#34;a&#34;:1.0},&#34;position&#34;:0.0},{&#34;color&#34;:{&#34;r&#34;:0.41568627953529358,&#34;g&#34;:0.26979640126228333,&#34;b&#34;:0.0,&#34;a&#34;:0.0},&#34;position&#34;:1.0}],&#34;transform&#34;:{&#34;m00&#34;:9.9103010143153369e-05,&#34;m01&#34;:7842.341308593750,&#34;m02&#34;:-1425.1707763671875,&#34;m10&#34;:-3584.0,&#34;m11&#34;:0.00024294003378599882,&#34;m12&#34;:5368.0},&#34;opacity&#34;:1.0,&#34;blendMode&#34;:&#34;NORMAL&#34;,&#34;visible&#34;:true}"/>
<path d="M3378.07 973.35C3361.32 976.012 3334.01 982.843 3317.63 988.167C3279.39 1000.69 3275.74 1000.31 3303.06 986.263C3315.08 980.19 3322 975.254 3318.72 975.254C3310.34 975.254 3253.89 993.861 3253.89 996.892C3253.89 998.039 3257.53 998.039 3261.9 996.892C3268.82 994.998 3269.19 995.377 3264.09 1000.31C3261.17 1003.73 3240.05 1012.09 3217.84 1019.31C3195.26 1026.14 3163.58 1039.05 3147.19 1047.41C3061.61 1091.46 3051.04 1099.06 3038.67 1123.74C3035.02 1131.34 3028.83 1138.56 3024.83 1139.69C3013.9 1142.35 3005.88 1158.68 3000.79 1188.68C2996.42 1216.03 2996.42 1216.41 2993.51 1201.6C2989.13 1178.43 2997.15 1148.81 3012.44 1131.72C3033.56 1108.93 3038.67 1096.78 3019.36 1115.76C2997.88 1137.03 2980.76 1171.97 2980.76 1194C2980.76 1213.75 2985.49 1227.42 2998.24 1244.89C3003.7 1252.48 3008.08 1263.5 3008.44 1270.71C3008.44 1277.93 3013.53 1290.08 3020.09 1300.34C3026.64 1309.45 3031.75 1318.56 3031.75 1319.71C3031.75 1321.23 3037.94 1329.2 3045.95 1337.94L3059.79 1353.12L3057.23 1457.57L3054.32 1561.62L3075.44 1609.47C3104.22 1673.28 3106.4 1683.91 3100.58 1742.01C3091.11 1838.86 3108.23 1878.73 3216.01 2011.65C3263.37 2069.76 3272.47 2078.87 3289.95 2087.23C3315.44 2099.38 3360.59 2102.42 3397.02 2094.83C3421.78 2089.13 3428.7 2091.03 3412.67 2098.63C3412.56 2098.68 3412.45 2098.73 3412.34 2098.79C3390.08 2109.94 3352.88 2178.28 3339.11 2233.44C3325.28 2288.13 3323.08 2391.43 3333.65 2477.25C3348.58 2596.12 3370.79 2692.59 3415.58 2828.17L3432.34 2878.68L3428.34 2923.11C3426.51 2947.42 3425.06 3018.44 3425.42 3081.1L3426.51 3194.65L3413.77 3197.31C3381.72 3204.53 3277.57 3211.75 3208.38 3212.12L3131.9 3212.88L3071.44 3196.17L3010.62 3179.46L3040.48 3147.18C3056.51 3129.71 3085.64 3097.81 3104.58 3076.54C3123.52 3055.65 3142.09 3036.67 3146.1 3034.39C3153.74 3030.59 3154.11 3034.77 3135.54 2931.09C3110.04 2791.34 3099.85 2686.52 3099.48 2566.51C3099.11 2427.13 3107.5 2363.33 3137.35 2286.61C3144.64 2267.24 3149.74 2251.29 3148.28 2251.29C3138.08 2251.29 3089.65 2299.9 3069.26 2331.04C3043.76 2370.54 3009.89 2452.95 2995.32 2512.96C2993.14 2522.08 2988.05 2534.22 2984.41 2539.55C2980.4 2544.86 2973.11 2562.33 2967.66 2577.9C2948.71 2632.97 2888.98 2751.46 2855.85 2799.68C2840.55 2821.71 2838.37 2827.79 2839.83 2838.04C2841.28 2847.54 2840.18 2852.47 2834.36 2857.41C2830.35 2861.21 2821.62 2872.6 2814.7 2882.1C2805.95 2895.01 2793.57 2904.88 2771 2918.17C2742.23 2934.89 2728.02 2946.66 2644.26 3021.48C2627.14 3037.04 2600.56 3057.18 2584.9 3066.29C2559.77 3081.48 2554.67 3083.38 2540.11 3081.48C2531 3080.72 2516.44 3076.16 2507.33 3071.99C2487.67 3062.49 2479.65 3062.11 2465.81 3069.71C2457.08 3074.65 2453.07 3075.03 2444.69 3071.23C2438.86 3068.94 2423.93 3067.81 2410.09 3068.56C2388.25 3070.09 2382.78 3071.98 2364.21 3086.03C2352.19 3094.39 2334.34 3104.26 2324.15 3107.68C2313.58 3111.1 2299.39 3117.18 2292.47 3120.98C2285.55 3124.77 2273.89 3128.95 2266.97 3130.47C2246.58 3135.02 2226.92 3147.18 2222.18 3158.2C2220 3163.89 2210.89 3179.46 2202.52 3193.13C2190.5 3212.5 2186.12 3223.51 2183.94 3240.6C2181.39 3262.25 2181.03 3263.39 2170.47 3264.53C2164.64 3265.29 2143.52 3263.39 2123.13 3259.98C2103.09 3256.94 2049.92 3250.48 2004.77 3245.92C1959.61 3241.36 1920.64 3236.05 1918.09 3233.77C1914.81 3231.11 1913.72 3225.04 1915.18 3216.68C1917.72 3199.59 1938.85 3120.22 1942.49 3114.14C1944.32 3111.1 1993.11 3104.26 2088.89 3094.39C2167.92 3086.03 2252.04 3076.54 2276.08 3073.5C2300.11 3070.47 2337.62 3066.29 2359.47 3064.01C2402.45 3059.45 2421.38 3052.24 2434.13 3035.15C2447.25 3017.68 2450.52 2999.45 2446.15 2968.31C2406.09 2700.19 2405.73 2697.52 2365.3 2441.18C2353.28 2364.85 2340.18 2283.58 2336.17 2260.78C2332.53 2237.62 2325.61 2195.85 2321.23 2167.74C2312.5 2111.16 2303.75 2087.61 2284.46 2070.9C2260.42 2049.64 2274.26 2051.15 2006.59 2040.52C1928.65 2037.48 1827.05 2033.3 1780.8 2031.03C1519.32 2019.25 1166.07 2007.85 1147.13 2010.9C1115.08 2015.83 1086.68 2040.14 1079.4 2069C1075.75 2084.58 1077.57 2101.66 1099.42 2241.8C1112.53 2327.25 1124.92 2405.1 1127.1 2414.59C1128.92 2424.09 1136.57 2471.94 1143.49 2520.93C1159.87 2632.21 1186.46 2804.24 1214.51 2981.6C1238.18 3130.85 1240.72 3139.2 1266.58 3157.81L1281.14 3168.45L1345.25 3168.07C1382.39 3167.69 1446.85 3163.51 1497.83 3158.2C1546.27 3153.25 1586.69 3149.84 1587.42 3150.6C1588.88 3151.74 1546.63 3245.92 1542.62 3250.86C1541.54 3252 1521.5 3256.18 1498.56 3259.21C1472.71 3263.01 1455.23 3267.19 1453.04 3270.61C1449.76 3274.79 1437.75 3275.54 1392.95 3274.41C1341.24 3273.27 1291.34 3276.68 1263.66 3283.14L1252.74 3285.79L1263.66 3288.46C1272.41 3290.35 1270.58 3291.12 1254.56 3291.5C1243.64 3291.88 1230.53 3293.01 1225.42 3294.53C1217.05 3296.81 1216.69 3296.43 1221.78 3289.97C1226.88 3283.52 1226.88 3283.14 1219.24 3287.32C1208.67 3293.39 1190.11 3317.32 1182.82 3334.03C1178.08 3345.8 1174.81 3348.47 1160.24 3351.5L1143.49 3355.3L1158.79 3356.05L1174.44 3356.43L1171.53 3368.59C1170.07 3375.43 1168.98 3397.46 1168.98 3417.2C1169.35 3447.96 1170.43 3455.18 1177.72 3467.71C1185.73 3481.39 1185.73 3481.76 1178.81 3481.76C1174.81 3481.76 1169.71 3484.42 1167.16 3487.46C1164.61 3490.5 1158.42 3493.15 1152.95 3493.53C1145.67 3493.92 1146.76 3494.68 1158.06 3497.71C1172.99 3501.13 1200.67 3498.86 1211.59 3492.77C1215.96 3490.12 1226.88 3492.39 1246.91 3499.61L1276.05 3510.24L1286.97 3499.23C1293.17 3493.15 1298.99 3484.8 1300.45 3481.01C1304.08 3468.09 1313.93 3466.19 1338.68 3474.17C1354.35 3479.48 1357.26 3481.01 1348.16 3479.48C1338.68 3478.34 1334.68 3478.72 1336.5 3481.39C1337.6 3483.66 1337.23 3485.56 1335.4 3485.56C1329.58 3485.56 1323.39 3503.79 1328.49 3506.06C1331.04 3506.82 1329.22 3507.97 1324.49 3507.97C1319.75 3508.35 1317.2 3509.86 1318.29 3512.15C1319.38 3514.42 1317.92 3514.8 1315.01 3513.66C1311.73 3512.53 1309.19 3513.28 1309.19 3515.56C1309.19 3517.46 1315.74 3521.64 1324.12 3523.91C1336.14 3527.71 1340.51 3527.71 1346.7 3523.54C1354.35 3518.98 1354.35 3518.98 1349.61 3525.82C1334.68 3545.94 1325.21 3553.92 1313.2 3556.2C1305.91 3557.34 1293.89 3562.65 1286.61 3567.59C1265.12 3582.02 1269.5 3597.59 1295.71 3602.15C1303 3603.29 1309.19 3602.53 1310.65 3599.87C1312.1 3597.59 1318.65 3595.7 1324.84 3595.7C1332.49 3595.7 1334.68 3594.55 1331.76 3592.28C1323.39 3586.96 1357.99 3559.61 1387.12 3548.98C1418.44 3537.58 1439.93 3531.13 1448.31 3531.13C1451.95 3531.13 1457.77 3537.59 1462.15 3546.32C1470.15 3563.03 1484.36 3572.15 1517.14 3582.02C1533.16 3586.96 1542.26 3587.34 1564.11 3584.68C1600.89 3579.74 1678.47 3562.27 1695.58 3555.43C1710.15 3549.36 1720.71 3532.27 1720.71 3515.18C1720.71 3509.86 1721.43 3504.93 1722.53 3503.79C1723.62 3502.65 1742.92 3505.69 1765.51 3510.24C1821.58 3522.02 1833.97 3523.54 1831.78 3519.74C1830.69 3517.46 1831.78 3517.08 1834.69 3518.22C1845.25 3522.4 1839.43 3529.62 1825.22 3530.75C1816.85 3531.13 1807.74 3533.03 1804.83 3534.93C1800.82 3537.21 1803.74 3537.58 1812.85 3536.83C1820.13 3536.07 1826.32 3537.21 1826.32 3538.73C1826.32 3544.05 1841.26 3551.27 1853.63 3552.02C1859.82 3552.4 1868.92 3549.74 1874.39 3545.94C1879.48 3541.76 1886.77 3538.73 1890.78 3538.73C1895.88 3538.73 1896.25 3537.96 1892.24 3535.31C1889.33 3533.41 1888.23 3529.24 1889.68 3525.44C1891.14 3520.5 1890.41 3519.36 1886.4 3521.26C1883.49 3522.4 1880.95 3522.02 1880.95 3520.11C1880.95 3518.6 1878.76 3517.08 1876.57 3517.08C1874.03 3516.71 1855.45 3515.95 1835.42 3514.8C1815.39 3513.66 1781.53 3509.11 1760.04 3504.17L1720.71 3495.81V3472.65C1720.71 3446.45 1712.33 3406.57 1704.32 3391.37C1699.59 3382.64 1698.86 3382.64 1700.67 3389.48C1704.68 3405.04 1697.4 3398.59 1686.47 3377.32C1673 3350.36 1658.44 3339.35 1615.83 3324.15C1576.49 3310.1 1551.37 3304.03 1560.47 3310.48C1565.21 3313.9 1565.21 3315.04 1560.83 3318.08C1552.09 3324.15 1516.77 3327.2 1511.67 3322.26C1508.76 3319.98 1491.28 3317.7 1472.71 3317.32L1439.2 3316.56L1466.14 3309.73C1485.45 3304.79 1502.2 3303.26 1524.06 3304.41C1554.28 3306.31 1554.65 3305.93 1538.62 3300.99C1529.51 3298.33 1514.95 3294.15 1506.21 3291.88C1497.83 3289.59 1491.28 3286.94 1492.01 3286.18C1494.92 3283.14 1593.61 3307.44 1621.65 3318.08C1663.17 3334.41 1670.82 3338.96 1683.56 3354.92L1694.85 3368.97L1733.09 3366.69L1771.7 3364.41V3375.43C1771.7 3383.02 1769.5 3387.19 1764.41 3388.72C1757.86 3390.99 1753.48 3405.81 1759.31 3405.81C1760.77 3405.81 1801.92 3415.3 1851.45 3426.69C1970.17 3454.04 2010.22 3463.16 2124.94 3487.84C2178.12 3499.23 2258.23 3517.08 2303.39 3526.96C2641.35 3603.29 2630.78 3601.39 2669.39 3601.01C2695.97 3600.63 2738.22 3594.55 2824.16 3578.99C3061.97 3536.07 3156.66 3519.74 3169.41 3519.74C3189.07 3519.74 3210.19 3515.56 3208.38 3511.77C3207.28 3510.24 3209.46 3507.97 3213.47 3506.44C3221.12 3504.17 3224.76 3490.12 3224.76 3462.39C3224.76 3440.74 3222.93 3439.61 3182.88 3431.63C3170.14 3428.98 3160.3 3425.93 3161.39 3424.42C3165.76 3416.82 3212.74 3417.2 3270.65 3424.8C3333.28 3433.15 3364.24 3438.85 3349.68 3439.6C3341.66 3439.98 3340.93 3444.92 3346.75 3455.94C3349.68 3460.87 3361.69 3462.77 3415.95 3466.57C3452.01 3469.23 3492.06 3470.37 3505.17 3468.85C3531.4 3466.19 3609.33 3473.79 3598.04 3477.97C3594.4 3479.48 3660.68 3480.24 3745.9 3479.86L3900.31 3479.1L4000.46 3492.01C4140.3 3509.86 4350.8 3544.05 4655.97 3597.97C4807.47 3624.94 4861.01 3634.05 4864.65 3632.53C4866.47 3632.16 4843.16 3626.46 4812.94 3620.76C4761.59 3610.51 4758.31 3609.37 4759.76 3601.77C4764.14 3580.5 4788.9 3447.2 4803.46 3364.03C4812.57 3312.77 4832.23 3200.73 4847.53 3115.28C4883.22 2912.86 4884.31 2881.72 4854.82 2862.73C4827.14 2844.88 4724.07 2827.79 4570.39 2815.26C4528.51 2811.84 4489.18 2808.42 4483 2807.66L4472.07 2805.77L4471.7 2689.17C4471.34 2601.06 4469.88 2561.95 4465.51 2530.81C4450.21 2425.99 4422.9 2355.35 4379.92 2307.88C4354.8 2279.78 4333.68 2263.82 4289.98 2239.14C4276.14 2231.17 4267.03 2224.71 4269.94 2224.71C4273.95 2224.71 4273.59 2223.57 4268.49 2220.15C4260.48 2215.59 4206.58 2218.63 4192.74 2224.71C4186.19 2227.75 4189.1 2228.13 4204.39 2226.61L4224.43 2224.71L4205.85 2230.03C4128.28 2253.19 4040.88 2363.71 3988.44 2505.74C3962.22 2577.14 3934.54 2688.03 3923.98 2765.89C3919.24 2799.3 3906.86 2841.84 3881.73 2907.92C3870.08 2938.69 3866.08 2954.25 3867.53 2961.85C3868.62 2967.54 3867.89 2975.52 3865.71 2979.32C3863.52 2983.12 3852.24 3011.6 3840.22 3043.13L3819.09 3100.08L3790.33 3102.75C3749.53 3106.55 3720.4 3114.14 3628.99 3143.76C3559.81 3166.17 3500.44 3182.5 3455.65 3190.48C3444.72 3192.75 3443.99 3191.99 3441.81 3178.7C3438.53 3157.05 3439.26 3011.22 3443.26 2950.84C3446.9 2893.12 3447.63 2891.21 3480.42 2815.26C3532.85 2695.25 3657.03 2491.69 3794.33 2301.43C3929.44 2114.57 3923.25 2122.93 3919.24 2134.32C3917.06 2140.77 3920.7 2143.06 3929.44 2141.15C3931.63 2140.77 3934.91 2140.02 3936.72 2139.64C3938.91 2139.26 3942.55 2137.74 3945.47 2135.84C3948.38 2133.94 3951.29 2134.7 3953.47 2137.74C3955.3 2140.78 3956.75 2141.92 3956.75 2140.77C3956.75 2139.64 3965.5 2141.15 3976.06 2144.2C3998.27 2151.04 4029.59 2153.31 4029.59 2148.37C4029.59 2146.48 4031.78 2145.33 4034.33 2146.1C4036.51 2146.48 4038.33 2144.57 4037.97 2141.92C4037.24 2139.64 4038.7 2137.36 4040.52 2137.36C4051.44 2137.36 4040.52 2128.25 4015.02 2116.1C3999 2108.5 3985.89 2100.52 3985.89 2098.63C3985.89 2096.72 3984.43 2096.34 3982.25 2097.49C3980.42 2098.63 3978.61 2098.25 3978.61 2096.72C3978.61 2092.54 3945.47 2075.46 3942.91 2078.49C3941.83 2079.64 3942.91 2080.4 3945.47 2080.4C3948.02 2080.4 3948.75 2082.29 3947.65 2084.2C3946.19 2086.47 3943.64 2086.85 3941.46 2085.71C3938.91 2083.81 3938.18 2085.33 3939.64 2089.13C3940.73 2092.93 3940.37 2095.58 3938.18 2095.58C3935.99 2095.58 3935.27 2097.1 3936.36 2099C3937.45 2100.9 3935.27 2106.6 3930.9 2111.16C3924.35 2119.13 3923.62 2119.13 3926.16 2112.67C3927.62 2108.5 3929.44 2097.1 3930.53 2087.61C3931.99 2070.9 3931.27 2069.38 3920.34 2062.93C3914.15 2058.75 3903.22 2046.22 3896.67 2034.44C3878.09 2002.92 3848.96 1975.96 3825.65 1968.74C3814.73 1965.33 3801.98 1962.66 3796.88 1962.66C3791.78 1962.66 3785.59 1961.15 3783.41 1959.62C3775.76 1954.69 3770.29 1915.19 3768.48 1849.88L3766.29 1784.93L3784.86 1776.58C3827.11 1757.59 3869.36 1688.09 3875.18 1627.32C3878.09 1596.18 3867.16 1555.17 3850.78 1535.79L3839.85 1522.5L3845.32 1492.89C3856.6 1430.22 3862.8 1366.8 3862.8 1317.05C3862.07 1209.2 3860.24 1187.93 3850.05 1157.54C3838.04 1122.6 3812.9 1083.48 3786.32 1058.81C3754.27 1028.8 3693.82 1001.84 3659.23 1001.84C3652.67 1001.84 3647.2 1000.31 3647.2 998.418C3647.2 994.998 3614.07 979.043 3606.42 979.043C3603.87 979.043 3607.88 983.6 3615.16 988.925C3622.8 994.619 3627.91 1000.69 3626.81 1002.22C3626.08 1004.11 3616.98 999.555 3607.51 992.335C3589.67 979.043 3563.8 967.277 3552.89 968.035C3549.61 968.035 3552.89 971.076 3559.81 974.107C3578.01 982.464 3567.81 984.368 3542.69 977.149C3513.92 968.414 3419.23 966.14 3378.07 973.35ZM3364.6 1314.39C3368.24 1317.81 3368.97 1320.85 3366.79 1320.85C3364.6 1320.85 3366.43 1324.65 3370.79 1329.2C3381.72 1341.74 3384.27 1351.23 3379.9 1363.38C3376.99 1371.35 3374.07 1374.02 3369.34 1372.49C3364.24 1371.35 3363.15 1372.49 3364.6 1376.67C3366.06 1380.85 3365.33 1381.61 3361.32 1380.47C3358.41 1378.95 3353.67 1380.47 3350.76 1383.51C3347.85 1386.55 3342.76 1389.2 3339.48 1389.2C3335.84 1389.2 3334.74 1391.11 3336.2 1393.76C3338.02 1396.42 3336.92 1397.18 3332.92 1395.66C3329.64 1394.52 3326.73 1394.91 3326 1397.18C3325.28 1399.08 3319.81 1401.74 3313.98 1402.87C3308.16 1404.02 3300.51 1407.43 3297.23 1410.47C3289.22 1418.07 3284.84 1417.31 3290.68 1409.33C3293.96 1405.16 3291.76 1405.91 3285.21 1411.23C3276.84 1418.07 3270.65 1419.58 3255.35 1418.83C3244.42 1418.45 3235.69 1416.54 3235.69 1415.03C3235.69 1413.51 3229.85 1411.99 3222.57 1411.99C3215.65 1411.99 3210.56 1410.47 3211.65 1408.96C3212.74 1407.05 3211.29 1405.54 3208.38 1405.54C3205.45 1405.54 3204 1407.05 3205.1 1408.96C3208.37 1414.27 3203.27 1412.38 3195.99 1405.16C3181.06 1391.49 3175.59 1387.31 3172.68 1388.44C3170.86 1388.82 3170.5 1388.06 3171.22 1386.55C3174.14 1381.99 3161.02 1354.26 3157.75 1357.68C3156.3 1359.59 3155.2 1358.82 3155.57 1356.92C3157.38 1347.43 3155.2 1331.86 3152.29 1334.14C3150.46 1335.28 3147.92 1334.52 3146.82 1332.61C3143.91 1328.06 3166.49 1322.74 3215.65 1315.53C3237.87 1312.11 3259.72 1309.07 3264.82 1307.93C3269.92 1307.18 3292.86 1306.8 3316.16 1307.18C3350.4 1307.93 3359.87 1309.07 3364.6 1314.39ZM3100.94 1344.77C3100.94 1345.53 3098.03 1355.41 3094.39 1366.8C3080.91 1407.43 3080.18 1487.57 3093.29 1488.33C3098.03 1488.33 3098.39 1488.71 3093.66 1490.6C3090.74 1491.74 3083.82 1495.92 3078.36 1499.72C3073.26 1503.89 3067.79 1506.94 3066.71 1506.94C3064.15 1506.94 3066.71 1403.25 3070.35 1375.53C3072.53 1356.54 3073.99 1353.88 3084.19 1348.95C3095.47 1344.01 3100.94 1342.5 3100.94 1344.77ZM3463.3 1616.31C3484.78 1631.88 3494.61 1648.97 3490.25 1662.26C3485.51 1676.31 3470.22 1691.13 3453.46 1698.72C3438.53 1704.8 3436.71 1703.27 3445.09 1691.51C3451.28 1682.77 3452.37 1652.77 3446.54 1637.19C3444.72 1631.5 3437.44 1620.87 3431.25 1613.65L3419.59 1600.74L3434.16 1603.02C3442.18 1604.54 3455.28 1610.23 3463.3 1616.31ZM3432.34 1863.55C3432.34 1876.07 3410.49 1895.82 3376.99 1913.67C3331.46 1937.97 3274.65 1938.36 3249.53 1914.43C3238.6 1904.18 3241.88 1901.9 3268.82 1901.9C3300.14 1901.9 3366.79 1886.33 3399.56 1871.51C3425.42 1860.13 3432.34 1858.22 3432.34 1863.55ZM1485.82 2023.43C1579.05 2027.23 1644.96 2030.26 1813.58 2038.62C1853.63 2040.52 1917.72 2043.55 1955.6 2045.08C1993.84 2046.59 2021.15 2048.49 2016.79 2049.26C2012.42 2050.01 1885.68 2046.22 1734.55 2040.9C1490.18 2032.17 1214.14 2023.43 1171.89 2023.43C1150.41 2023.43 1132.92 2039.75 1127.1 2065.2C1123.46 2080.4 1123.82 2091.03 1128.55 2121.03C1131.84 2141.54 1136.93 2178 1139.84 2201.92C1143.12 2225.85 1146.4 2251.29 1147.49 2257.75C1148.59 2264.58 1147.86 2270.29 1146.03 2270.29C1144.22 2270.29 1140.21 2250.91 1136.57 2227.37C1133.29 2204.2 1126.37 2163.18 1121.28 2136.6C1116.54 2110.39 1112.53 2083.43 1112.53 2076.98C1112.53 2057.61 1123.46 2035.2 1137.66 2024.95L1150.77 2015.07L1269.13 2017.35C1334.32 2018.49 1431.91 2021.15 1485.82 2023.43ZM1622.38 2108.88C2165.01 2122.17 2241.84 2125.21 2249.49 2132.42C2253.5 2136.22 2258.23 2143.06 2260.05 2147.62C2262.97 2155.97 2289.91 2319.65 2327.06 2557.02C2337.98 2625.75 2356.2 2741.58 2367.49 2814.12C2384.24 2919.32 2387.52 2948.18 2384.24 2955.4C2379.5 2966.41 2380.23 2966.03 2257.87 2977.05C2209.8 2981.22 2101.64 2991.47 2017.51 2999.83C1933.39 3007.81 1803.02 3020.71 1727.99 3027.93C1652.97 3035.15 1538.62 3046.54 1474.16 3053L1356.89 3064.77L1345.97 3056.8C1339.41 3051.85 1333.22 3042.74 1331.04 3034.39C1327.4 3020.33 1290.61 2787.54 1236.35 2435.48C1220.7 2332.95 1203.58 2223.57 1198.48 2192.05C1187.91 2127.48 1186.83 2110.78 1193.75 2103.56C1197.38 2099.38 1216.69 2099 1292.8 2100.9C1344.88 2102.05 1493.1 2105.83 1622.38 2108.88ZM4648.69 2836.15C4691.66 2839.95 4745.92 2846.78 4768.87 2850.96C4791.81 2855.51 4813.3 2858.93 4816.21 2858.93C4819.13 2858.93 4815.12 2862.35 4806.74 2866.14C4789.99 2874.12 4778.34 2887.79 4772.51 2906.79C4768.51 2919.7 4767.78 2920.08 4761.22 2913.62C4757.58 2910.2 4753.57 2904.5 4752.48 2900.7C4749.93 2891.97 4725.9 2885.14 4697.12 2885.14C4675.28 2885.14 4672 2886.28 4661.81 2896.53C4648.33 2910.2 4637.4 2912.1 4640.32 2900.7C4641.41 2896.53 4643.23 2893.12 4644.69 2893.12C4646.14 2893.12 4651.24 2885.9 4655.97 2877.16C4660.34 2868.81 4662.53 2862.73 4660.34 2864.25C4658.16 2865.38 4654.52 2864.63 4651.61 2861.98C4649.05 2859.31 4644.32 2856.65 4641.41 2855.89C4638.49 2855.13 4635.21 2853.24 4634.13 2851.71C4633.03 2850.2 4627.57 2848.68 4621.37 2848.29C4615.55 2847.92 4608.63 2845.26 4606.45 2842.22C4604.26 2838.8 4591.15 2835.39 4571.85 2833.11C4514.67 2826.66 4569.66 2828.55 4648.69 2836.15ZM2860.94 2918.17C2879.15 2923.88 2896.63 2934.89 2887.17 2934.89C2884.98 2934.89 2880.25 2937.55 2877.34 2940.96C2874.06 2944 2871.5 2945.14 2871.5 2943.24C2871.5 2941.34 2868.96 2939.82 2866.04 2939.82C2863.13 2939.82 2860.59 2941.34 2860.59 2943.24C2860.59 2944.76 2858.39 2945.91 2856.21 2945.14C2853.67 2944.76 2851.84 2946.28 2852.21 2948.94C2852.94 2951.6 2850.02 2952.74 2846.02 2951.98C2842.01 2951.22 2838.73 2952.36 2838.73 2954.25C2838.73 2956.53 2836.91 2956.91 2835.09 2955.78C2832.91 2954.25 2832.54 2951.22 2833.99 2948.94C2835.45 2946.28 2833.99 2946.66 2830.35 2949.69C2823.8 2955.4 2821.98 2959.58 2827.81 2955.78C2829.99 2954.63 2831.45 2956.91 2831.45 2961.09C2831.45 2964.89 2829.63 2969.07 2827.44 2969.83C2825.62 2970.58 2823.43 2974.38 2822.71 2978.18C2822.35 2981.98 2818.7 2987.68 2814.7 2990.72C2808.87 2995.27 2808.51 2996.41 2813.24 2999.45C2817.97 3002.48 2817.61 3003.63 2811.42 3008.57C2804.5 3014.26 2802.67 3015.02 2795.4 3016.15C2793.57 3016.15 2790.66 3018.06 2788.84 3019.95C2787.02 3021.86 2787.75 3022.24 2790.3 3020.71C2793.21 3019.2 2794.3 3019.95 2793.21 3023C2792.11 3026.04 2788.11 3028.31 2784.11 3028.31C2780.46 3028.31 2778.27 3026.42 2779.37 3024.51C2780.83 3022.62 2779 3021.86 2775.73 3023.37C2772.45 3024.51 2768.81 3024.13 2767.36 3021.86C2766.26 3019.57 2762.62 3018.82 2759.71 3019.95C2756.79 3021.1 2755.7 3020.33 2756.79 3018.44C2759.34 3014.26 2747.68 3015.4 2736.04 3020.33C2732.39 3021.86 2729.48 3021.48 2729.12 3019.95C2727.66 3000.21 2724.01 2996.41 2713.82 3003.25C2682.5 3024.13 2646.81 3045.02 2642.08 3045.02C2634.43 3044.64 2696.34 2984.63 2733.12 2957.29C2791.76 2913.24 2817.97 2905.26 2860.94 2918.17ZM3993.18 2970.96C4005.92 2976.28 4018.3 2982.36 4020.49 2985.01C4023.03 2988.05 4022.67 2988.43 4018.66 2986.54C4015.75 2985.01 4016.11 2986.16 4020.12 2989.57C4023.76 2992.99 4025.58 2997.17 4023.76 2999.83C4021.94 3003.25 4023.03 3003.63 4027.77 3001.73C4033.23 2999.83 4033.6 3000.21 4029.95 3004.77C4024.13 3011.98 4016.11 3008.57 4012.84 2998.31C4010.66 2991.48 4010.29 2991.1 4007.01 2997.17C4005.19 3000.59 4001.91 3002.1 3999.73 3000.97C3997.18 2999.07 3996.45 3000.97 3997.9 3006.66C3999.36 3013.5 3998.63 3014.64 3994.26 3013.12C3990.26 3011.6 3989.53 3012.37 3990.98 3016.54C3992.08 3019.57 3991.35 3022.24 3989.53 3022.24C3987.34 3022.24 3985.89 3019.95 3985.89 3017.3C3985.89 3014.26 3984.43 3014.64 3982.25 3018.44C3979.7 3022.62 3978.61 3022.62 3978.61 3019.2C3978.61 3016.54 3976.78 3015.4 3974.96 3016.54C3972.78 3018.06 3972.42 3021.1 3973.5 3023.37C3975.33 3026.42 3974.6 3026.42 3970.96 3023C3963.67 3016.15 3958.94 3017.3 3964.4 3024.89C3969.14 3030.97 3968.77 3031.35 3962.94 3026.42C3959.66 3023.37 3955.3 3022.24 3954.21 3023.75C3952.74 3025.27 3953.84 3027.93 3956.75 3029.84C3963.67 3034.39 3961.49 3034.39 3946.56 3030.21C3939.64 3027.93 3930.17 3027.93 3923.62 3029.84C3914.15 3032.87 3912.69 3032.49 3914.51 3027.17C3916.33 3022.24 3915.97 3021.86 3911.24 3026.04C3908.32 3028.69 3906.86 3032.11 3907.95 3034C3909.05 3035.91 3908.32 3037.42 3906.13 3037.42C3901.4 3037.42 3897.4 3023.37 3900.68 3018.06C3902.13 3015.02 3901.76 3014.64 3899.21 3016.15C3897.03 3017.3 3890.83 3033.25 3885.74 3050.72C3880.27 3068.56 3874.08 3083 3871.9 3083C3870.08 3083 3868.99 3084.14 3870.44 3085.28C3871.54 3086.79 3870.44 3090.21 3867.53 3092.88C3862.44 3098.57 3836.57 3100.46 3836.57 3095.15C3836.57 3089.45 3868.26 3005.15 3877.73 2985.39C3883.19 2974.76 3889.38 2965.27 3891.93 2964.13C3894.48 2962.99 3913.05 2961.85 3933.45 2961.85C3964.4 2961.47 3973.5 2962.99 3993.18 2970.96ZM3884.28 3122.49C3893.39 3125.91 3907.23 3135.78 3914.87 3143.76L3929.07 3158.96H3915.97C3906.86 3158.96 3901.4 3161.23 3898.85 3165.41C3896.67 3169.21 3894.84 3171.1 3894.84 3169.21C3894.84 3167.69 3890.48 3169.21 3885.01 3173.01C3879.92 3176.81 3867.89 3179.84 3858.79 3180.23C3812.9 3181.74 3812.9 3181.74 3818.36 3185.92C3822.74 3188.96 3822.74 3189.72 3816.55 3188.96C3803.44 3187.81 3800.89 3189.34 3799.07 3197.31C3797.61 3203.39 3795.06 3204.91 3789.6 3203.39C3785.23 3202.25 3780.85 3203.39 3779.4 3205.28C3778.31 3207.57 3779.04 3208.33 3781.22 3206.81C3783.41 3205.66 3785.96 3206.04 3787.41 3208.33C3788.5 3210.22 3787.05 3212.5 3784.13 3212.5C3763.02 3214.4 3755 3213.64 3753.54 3208.7C3752.46 3205.66 3753.54 3204.53 3755.37 3205.66C3757.18 3206.81 3759.01 3205.66 3759.01 3203.01C3759.01 3199.97 3756.82 3198.45 3753.91 3199.59C3751.36 3200.73 3749.18 3205.66 3749.18 3210.6C3749.18 3215.54 3747.35 3219.71 3745.17 3219.71C3742.98 3219.71 3741.89 3222 3742.98 3225.04C3744.81 3229.59 3741.89 3230.35 3728.05 3229.59C3718.58 3228.84 3709.48 3228.07 3707.3 3227.31C3699.65 3225.42 3696.73 3227.69 3701.83 3231.11C3706.57 3234.15 3706.2 3234.91 3701.11 3234.91C3697.46 3234.91 3694.54 3232.63 3694.54 3229.97C3694.54 3226.55 3693.82 3226.55 3691.63 3229.97C3687.99 3235.67 3663.23 3230.35 3664.68 3223.89C3665.05 3221.24 3664.32 3220.1 3662.5 3221.24C3661.04 3222 3657.4 3221.62 3654.49 3219.71C3650.48 3217.06 3650.48 3215.54 3654.12 3210.6C3657.4 3206.42 3657.76 3204.53 3654.85 3204.53C3652.67 3204.53 3650.84 3201.86 3650.84 3198.83C3650.84 3195.79 3649.03 3193.13 3646.84 3193.13C3645.02 3193.13 3644.29 3195.03 3645.39 3196.93C3646.47 3199.21 3645.39 3203.39 3642.47 3206.42C3639.55 3209.46 3637.74 3216.3 3638.47 3222.38C3639.2 3228.07 3638.83 3230.73 3637.74 3228.07C3636.64 3225.8 3634.09 3224.28 3632.28 3225.8C3626.44 3229.22 3628.64 3215.55 3634.82 3209.08C3640.28 3203.77 3640.28 3202.63 3634.82 3198.83C3631.55 3196.17 3630.45 3192.75 3631.91 3191.23C3633.36 3189.34 3631.91 3188.96 3628.99 3190.1C3626.08 3191.23 3614.07 3194.28 3602.77 3196.93C3591.12 3199.59 3581.65 3203.39 3581.65 3205.28C3581.65 3207.19 3583.84 3207.57 3586.39 3206.04C3589.67 3203.77 3589.67 3204.53 3586.02 3209.08C3582.38 3214.02 3582.38 3215.54 3586.02 3216.68C3590.03 3218.2 3590.03 3219.71 3586.02 3224.28C3582.75 3228.84 3578.37 3229.6 3568.91 3227.31C3561.99 3225.8 3556.16 3225.8 3555.43 3227.69C3554.7 3229.59 3550.33 3228.45 3545.6 3224.66C3537.22 3218.58 3537.22 3218.2 3543.78 3215.55C3564.53 3206.81 3510.64 3217.06 3456.01 3231.87C3432.7 3237.95 3415.58 3239.85 3370.43 3239.85C3339.48 3239.85 3309.24 3238.71 3303.42 3236.8C3296.14 3234.91 3292.13 3235.29 3289.95 3239.09C3288.12 3242.13 3286.67 3242.51 3286.67 3240.22C3286.67 3237.95 3281.2 3236.05 3275.01 3235.67C3268.46 3235.29 3254.99 3233.77 3244.79 3231.87C3227.67 3229.22 3229.13 3228.84 3266.64 3226.17C3425.06 3214.78 3503.35 3199.59 3649.03 3152.12C3700.01 3135.4 3756.82 3120.97 3791.05 3115.66C3812.54 3112.62 3867.89 3116.42 3884.28 3122.49ZM2860.59 3138.44C2888.62 3150.22 3032.48 3196.17 3106.4 3216.68C3126.43 3222.38 3130.8 3227.69 3111.87 3223.13C3103.12 3220.86 3095.11 3218.58 3093.66 3217.82C3092.56 3217.06 3084.19 3215.92 3075.08 3215.55C3052.87 3214.78 3045.59 3212.5 3048.86 3207.19C3050.31 3204.53 3048.5 3204.91 3045.22 3207.95C3040.85 3211.37 3039.03 3211.75 3039.03 3208.7C3039.03 3206.04 3037.57 3204.91 3035.75 3206.42C3033.93 3207.57 3031.38 3206.81 3029.92 3204.91C3028.83 3203.01 3025.19 3201.11 3021.55 3201.11C3011.35 3201.49 2965.1 3188.96 2954.54 3183.26C2949.08 3180.23 2935.97 3176.81 2925.41 3175.67C2914.85 3174.52 2905.38 3172.25 2904.28 3171.1C2903.19 3169.59 2897.36 3166.54 2890.81 3164.27C2880.98 3160.47 2879.52 3160.47 2881.34 3165.79C2883.16 3169.96 2882.43 3170.72 2878.79 3168.45C2875.15 3166.17 2874.43 3166.93 2876.24 3172.25C2878.79 3178.7 2878.42 3178.7 2869.32 3172.25C2863.5 3168.45 2855.85 3166.55 2850.39 3167.69C2839.46 3169.97 2826.35 3164.27 2829.63 3158.58C2831.08 3156.67 2842.74 3155.16 2856.21 3155.16C2890.81 3154.78 2877.34 3149.07 2834.72 3146.04C2800.13 3143.38 2780.46 3147.18 2780.46 3156.29C2780.46 3158.2 2777.19 3158.96 2773.18 3157.81C2764.43 3155.54 2736.04 3162.38 2738.58 3166.55C2740.4 3169.21 2664.65 3183.64 2661.74 3180.98C2661.02 3179.84 2680.68 3173.76 2705.81 3167.31C2730.57 3160.47 2764.8 3148.32 2781.2 3139.58C2815.43 3122.49 2822.71 3122.49 2860.59 3138.44ZM4431.64 3343.14C4434.91 3364.03 4438.92 3386.06 4440.75 3392.52C4442.56 3398.59 4445.12 3410.75 4446.57 3419.1C4447.67 3427.45 4455.32 3460.87 4463.32 3493.92C4470.97 3526.58 4477.53 3554.68 4477.53 3556.58C4477.53 3558.85 4460.78 3556.96 4440.38 3553.16C4419.62 3549.36 4383.93 3542.91 4360.99 3538.73C4338.05 3534.55 4292.16 3526.96 4259.03 3521.64C4170.16 3507.97 4086.77 3493.15 4084.58 3491.26C4083.85 3490.12 4087.49 3489.35 4092.59 3489.35C4098.42 3489.35 4102.43 3487.08 4102.43 3484.42C4102.43 3481.39 4106.07 3476.06 4110.08 3471.89C4114.45 3468.09 4124.28 3454.8 4131.92 3442.27C4139.57 3430.11 4150.86 3416.82 4157.05 3413.02C4162.87 3409.22 4167.98 3402.77 4167.98 3399.35C4167.98 3395.55 4175.63 3379.23 4184.36 3363.27C4199.3 3336.69 4201.84 3333.65 4214.59 3331.75C4221.87 3330.62 4231.7 3328.71 4235.71 3327.95C4240.08 3326.82 4253.19 3313.53 4264.85 3297.95C4276.86 3282.38 4290.34 3267.19 4295.44 3263.77C4311.09 3253.52 4334.41 3229.22 4340.6 3216.68C4343.88 3209.84 4345.69 3204.53 4344.24 3204.53C4343.15 3204.53 4347.15 3198.45 4353.34 3191.23C4359.53 3183.64 4364.63 3176.05 4364.63 3174.52C4364.63 3172.63 4373.37 3168.45 4383.93 3164.65C4394.13 3161.23 4406.88 3155.92 4411.97 3153.25L4421.08 3148.32L4423.27 3226.55C4424.36 3269.85 4428.36 3322.26 4431.64 3343.14ZM1639.13 3344.29C1641.32 3345.8 1647.88 3356.05 1652.97 3367.45C1660.25 3382.26 1662.08 3388.72 1658.79 3392.13C1655.88 3395.17 1654.06 3394.79 1651.52 3390.61C1648.6 3385.68 1647.51 3385.68 1644.6 3390.24C1642.41 3394.04 1640.96 3394.03 1639.86 3390.61C1639.13 3388.34 1634.04 3385.68 1628.57 3385.68C1623.11 3385.3 1618.74 3383.78 1618.74 3381.88C1618.74 3380.36 1615.46 3379.23 1611.82 3379.23C1607.81 3379.23 1604.17 3377.32 1603.45 3375.43C1602.72 3373.14 1596.88 3370.87 1590.69 3370.11C1581.59 3368.59 1578.68 3370.11 1576.49 3376.19L1574.31 3383.78L1567.39 3376.19C1562.65 3370.49 1557.19 3368.97 1548.81 3369.72C1526.6 3372.39 1567.39 3360.99 1596.53 3356.82C1617.64 3353.4 1624.56 3353.4 1628.93 3357.2C1633.67 3361.38 1634.04 3360.99 1630.39 3353.78C1627.84 3349.22 1626.02 3344.67 1626.02 3343.52C1626.02 3340.49 1634.4 3340.87 1639.13 3344.29ZM1808.47 3348.47C1802.29 3352.64 1811.39 3355.3 1875.49 3367.45C1899.52 3372.39 1931.56 3379.23 1946.5 3383.02C1998.58 3396.7 2067.41 3410.37 2074.33 3408.46C2077.97 3407.33 2080.51 3408.09 2079.42 3409.6C2078.33 3411.51 2084.52 3413.78 2092.89 3415.3C2101.64 3416.82 2129.32 3422.89 2154.8 3428.98C2179.93 3434.67 2210.52 3441.51 2222.18 3443.4C2247.31 3447.96 2418.11 3484.42 2490.94 3500.75C2518.99 3507.21 2571.06 3518.6 2606.75 3526.2L2671.21 3539.49L2751.69 3525.82C2795.75 3517.84 2833.99 3512.53 2836.19 3513.28C2838.73 3514.04 2834.72 3515.95 2827.81 3517.46C2820.89 3518.6 2780.83 3525.82 2738.95 3533.41L2662.83 3547.09L2626.06 3539.11C2605.66 3534.55 2525.54 3517.46 2447.25 3500.75C2369.31 3484.42 2237.12 3455.94 2154.08 3438.09C2071.05 3420.24 1963.25 3397.08 1914.81 3386.82C1799.37 3362.52 1773.51 3354.54 1788.45 3348.47C1799.01 3344.29 1815.03 3344.29 1808.47 3348.47Z" fill="#070137"/>
<path d="M1622.38 2108.88C2165.01 2122.17 2241.84 2125.21 2249.49 2132.42C2253.5 2136.22 2258.23 2143.06 2260.05 2147.62C2262.97 2155.97 2289.91 2319.65 2327.06 2557.02C2337.98 2625.75 2356.2 2741.58 2367.49 2814.12C2384.24 2919.32 2387.52 2948.18 2384.24 2955.4C2379.5 2966.41 2380.23 2966.03 2257.87 2977.05C2209.8 2981.22 2101.64 2991.47 2017.51 2999.83C1933.39 3007.81 1803.02 3020.71 1727.99 3027.93C1652.97 3035.15 1538.62 3046.54 1474.16 3053L1356.89 3064.77L1345.97 3056.8C1339.41 3051.85 1333.22 3042.74 1331.04 3034.39C1327.4 3020.33 1290.61 2787.54 1236.35 2435.48C1220.7 2332.95 1203.58 2223.57 1198.48 2192.05C1187.91 2127.48 1186.83 2110.78 1193.75 2103.56C1197.38 2099.38 1216.69 2099 1292.8 2100.9C1344.88 2102.05 1493.1 2105.83 1622.38 2108.88Z" fill="white"/>
<path d="M3339.11 2233.44C3352.88 2178.28 3390.08 2109.94 3412.34 2098.79L3318 2145C3268 2176 3169 2225 3148.28 2251.29C3149.74 2251.29 3144.64 2267.24 3137.35 2286.61C3107.5 2363.33 3099.11 2427.13 3099.48 2566.51C3099.85 2686.52 3110.04 2791.34 3135.54 2931.09C3154.11 3034.77 3153.74 3030.59 3146.1 3034.39C3142.09 3036.67 3123.52 3055.65 3104.58 3076.54C3085.64 3097.81 3056.51 3129.71 3040.48 3147.18L3010.62 3179.46L3071.44 3196.17L3131.9 3212.88L3208.38 3212.12C3277.57 3211.75 3381.72 3204.53 3413.77 3197.31L3426.51 3194.65L3425.42 3081.1C3425.06 3018.44 3426.51 2947.42 3428.34 2923.11L3432.34 2878.68L3415.58 2828.17C3370.79 2692.59 3348.58 2596.12 3333.65 2477.25C3323.08 2391.43 3325.28 2288.13 3339.11 2233.44Z" fill="white"/>
<path d="M3463.3 1616.31C3484.78 1631.88 3494.61 1648.97 3490.25 1662.26C3485.51 1676.31 3470.22 1691.13 3453.46 1698.72C3438.53 1704.8 3436.71 1703.27 3445.09 1691.51C3451.28 1682.77 3452.37 1652.77 3446.54 1637.19C3444.72 1631.5 3437.44 1620.87 3431.25 1613.65L3419.59 1600.74L3434.16 1603.02C3442.18 1604.54 3455.28 1610.23 3463.3 1616.31Z" fill="white"/>
<path d="M3432.34 1863.55C3432.34 1876.07 3410.49 1895.82 3376.99 1913.67C3331.46 1937.97 3274.65 1938.36 3249.53 1914.43C3238.6 1904.18 3241.88 1901.9 3268.82 1901.9C3300.14 1901.9 3366.79 1886.33 3399.56 1871.51C3425.42 1860.13 3432.34 1858.22 3432.34 1863.55Z" fill="white"/>
<path d="M3364.6 1314.39C3368.24 1317.81 3368.97 1320.85 3366.79 1320.85C3364.6 1320.85 3366.43 1324.65 3370.79 1329.2C3381.72 1341.74 3384.27 1351.23 3379.9 1363.38C3376.99 1371.35 3374.07 1374.02 3369.34 1372.49C3364.24 1371.35 3363.15 1372.49 3364.6 1376.67C3366.06 1380.85 3365.33 1381.61 3361.32 1380.47C3358.41 1378.95 3353.67 1380.47 3350.76 1383.51C3347.85 1386.55 3342.76 1389.2 3339.48 1389.2C3335.84 1389.2 3334.74 1391.11 3336.2 1393.76C3338.02 1396.42 3336.92 1397.18 3332.92 1395.66C3329.64 1394.52 3326.73 1394.91 3326 1397.18C3325.28 1399.08 3319.81 1401.74 3313.98 1402.87C3308.16 1404.02 3300.51 1407.43 3297.23 1410.47C3289.22 1418.07 3284.84 1417.31 3290.68 1409.33C3293.96 1405.16 3291.76 1405.91 3285.21 1411.23C3276.84 1418.07 3270.65 1419.58 3255.35 1418.83C3244.42 1418.45 3235.69 1416.54 3235.69 1415.03C3235.69 1413.51 3229.85 1411.99 3222.57 1411.99C3215.65 1411.99 3210.56 1410.47 3211.65 1408.96C3212.74 1407.05 3211.29 1405.54 3208.38 1405.54C3205.45 1405.54 3204 1407.05 3205.1 1408.96C3208.37 1414.27 3203.27 1412.38 3195.99 1405.16C3181.06 1391.49 3175.59 1387.31 3172.68 1388.44C3170.86 1388.82 3170.5 1388.06 3171.22 1386.55C3174.14 1381.99 3161.02 1354.26 3157.75 1357.68C3156.3 1359.59 3155.2 1358.82 3155.57 1356.92C3157.38 1347.43 3155.2 1331.86 3152.29 1334.14C3150.46 1335.28 3147.92 1334.52 3146.82 1332.61C3143.91 1328.06 3166.49 1322.74 3215.65 1315.53C3237.87 1312.11 3259.72 1309.07 3264.82 1307.93C3269.92 1307.18 3292.86 1306.8 3316.16 1307.18C3350.4 1307.93 3359.87 1309.07 3364.6 1314.39Z" fill="white"/>
<path d="M3100.94 1344.77C3100.94 1345.53 3098.03 1355.41 3094.39 1366.8C3080.91 1407.43 3080.18 1487.57 3093.29 1488.33C3098.03 1488.33 3098.39 1488.71 3093.66 1490.6C3090.74 1491.74 3083.82 1495.92 3078.36 1499.72C3073.26 1503.89 3067.79 1506.94 3066.71 1506.94C3064.15 1506.94 3066.71 1403.25 3070.35 1375.53C3072.53 1356.54 3073.99 1353.88 3084.19 1348.95C3095.47 1344.01 3100.94 1342.5 3100.94 1344.77Z" fill="white"/>
<path d="M4192.74 2224.71C4206.58 2218.63 4260.48 2215.59 4268.49 2220.15C4247 2207.92 4201 2181.9 4139.5 2164C4083.72 2147.76 4055.35 2138.88 4040.52 2137.36C4038.7 2137.36 4037.24 2139.64 4037.97 2141.92C4038.33 2144.57 4036.51 2146.48 4034.33 2146.1C4031.78 2145.33 4029.59 2146.48 4029.59 2148.37C4029.59 2153.31 3998.27 2151.04 3976.06 2144.2C3965.5 2141.15 3956.75 2139.64 3956.75 2140.77C3956.75 2141.92 3955.3 2140.78 3953.47 2137.74C3951.29 2134.7 3948.38 2133.94 3945.47 2135.84C3942.55 2137.74 3938.91 2139.26 3936.72 2139.64C3934.91 2140.02 3931.63 2140.77 3929.44 2141.15C3920.7 2143.06 3917.06 2140.77 3919.24 2134.32C3923.25 2122.93 3929.44 2114.57 3794.33 2301.43C3657.03 2491.69 3532.85 2695.25 3480.42 2815.26C3447.63 2891.21 3446.9 2893.12 3443.26 2950.84C3439.26 3011.22 3438.53 3157.05 3441.81 3178.7C3443.99 3191.99 3444.72 3192.75 3455.65 3190.48C3500.44 3182.5 3559.81 3166.17 3628.99 3143.76C3720.4 3114.14 3749.53 3106.55 3790.33 3102.75L3819.09 3100.08L3840.22 3043.13C3852.24 3011.6 3863.52 2983.12 3865.71 2979.32C3867.89 2975.52 3868.62 2967.54 3867.53 2961.85C3866.08 2954.25 3870.08 2938.69 3881.73 2907.92C3906.86 2841.84 3919.24 2799.3 3923.98 2765.89C3934.54 2688.03 3962.22 2577.14 3988.44 2505.74C4040.88 2363.71 4128.28 2253.19 4205.85 2230.03L4224.43 2224.71L4204.39 2226.61C4189.1 2228.13 4186.19 2227.75 4192.74 2224.71Z" fill="white"/>
<path d="M3884.28 3122.49C3893.39 3125.91 3907.23 3135.78 3914.87 3143.76L3929.07 3158.96H3915.97C3906.86 3158.96 3901.4 3161.23 3898.85 3165.41C3896.67 3169.21 3894.84 3171.1 3894.84 3169.21C3894.84 3167.69 3890.48 3169.21 3885.01 3173.01C3879.92 3176.81 3867.89 3179.84 3858.79 3180.23C3812.9 3181.74 3812.9 3181.74 3818.36 3185.92C3822.74 3188.96 3822.74 3189.72 3816.55 3188.96C3803.44 3187.81 3800.89 3189.34 3799.07 3197.31C3797.61 3203.39 3795.06 3204.91 3789.6 3203.39C3785.23 3202.25 3780.85 3203.39 3779.4 3205.28C3778.31 3207.57 3779.04 3208.33 3781.22 3206.81C3783.41 3205.66 3785.96 3206.04 3787.41 3208.33C3788.5 3210.22 3787.05 3212.5 3784.13 3212.5C3763.02 3214.4 3755 3213.64 3753.54 3208.7C3752.46 3205.66 3753.54 3204.53 3755.37 3205.66C3757.18 3206.81 3759.01 3205.66 3759.01 3203.01C3759.01 3199.97 3756.82 3198.45 3753.91 3199.59C3751.36 3200.73 3749.18 3205.66 3749.18 3210.6C3749.18 3215.54 3747.35 3219.71 3745.17 3219.71C3742.98 3219.71 3741.89 3222 3742.98 3225.04C3744.81 3229.59 3741.89 3230.35 3728.05 3229.59C3718.58 3228.84 3709.48 3228.07 3707.3 3227.31C3699.65 3225.42 3696.73 3227.69 3701.83 3231.11C3706.57 3234.15 3706.2 3234.91 3701.11 3234.91C3697.46 3234.91 3694.54 3232.63 3694.54 3229.97C3694.54 3226.55 3693.82 3226.55 3691.63 3229.97C3687.99 3235.67 3663.23 3230.35 3664.68 3223.89C3665.05 3221.24 3664.32 3220.1 3662.5 3221.24C3661.04 3222 3657.4 3221.62 3654.49 3219.71C3650.48 3217.06 3650.48 3215.54 3654.12 3210.6C3657.4 3206.42 3657.76 3204.53 3654.85 3204.53C3652.67 3204.53 3650.84 3201.86 3650.84 3198.83C3650.84 3195.79 3649.03 3193.13 3646.84 3193.13C3645.02 3193.13 3644.29 3195.03 3645.39 3196.93C3646.47 3199.21 3645.39 3203.39 3642.47 3206.42C3639.55 3209.46 3637.74 3216.3 3638.47 3222.38C3639.2 3228.07 3638.83 3230.73 3637.74 3228.07C3636.64 3225.8 3634.09 3224.28 3632.28 3225.8C3626.44 3229.22 3628.64 3215.55 3634.82 3209.08C3640.28 3203.77 3640.28 3202.63 3634.82 3198.83C3631.55 3196.17 3630.45 3192.75 3631.91 3191.23C3633.36 3189.34 3631.91 3188.96 3628.99 3190.1C3626.08 3191.23 3614.07 3194.28 3602.77 3196.93C3591.12 3199.59 3581.65 3203.39 3581.65 3205.28C3581.65 3207.19 3583.84 3207.57 3586.39 3206.04C3589.67 3203.77 3589.67 3204.53 3586.02 3209.08C3582.38 3214.02 3582.38 3215.54 3586.02 3216.68C3590.03 3218.2 3590.03 3219.71 3586.02 3224.28C3582.75 3228.84 3578.37 3229.6 3568.91 3227.31C3561.99 3225.8 3556.16 3225.8 3555.43 3227.69C3554.7 3229.59 3550.33 3228.45 3545.6 3224.66C3537.22 3218.58 3537.22 3218.2 3543.78 3215.55C3564.53 3206.81 3510.64 3217.06 3456.01 3231.87C3432.7 3237.95 3415.58 3239.85 3370.43 3239.85C3339.48 3239.85 3309.24 3238.71 3303.42 3236.8C3296.14 3234.91 3292.13 3235.29 3289.95 3239.09C3288.12 3242.13 3286.67 3242.51 3286.67 3240.22C3286.67 3237.95 3281.2 3236.05 3275.01 3235.67C3268.46 3235.29 3254.99 3233.77 3244.79 3231.87C3227.67 3229.22 3229.13 3228.84 3266.64 3226.17C3425.06 3214.78 3503.35 3199.59 3649.03 3152.12C3700.01 3135.4 3756.82 3120.97 3791.05 3115.66C3812.54 3112.62 3867.89 3116.42 3884.28 3122.49Z" fill="white"/>
<path d="M4431.64 3343.14C4434.91 3364.03 4438.92 3386.06 4440.75 3392.52C4442.56 3398.59 4445.12 3410.75 4446.57 3419.1C4447.67 3427.45 4455.32 3460.87 4463.32 3493.92C4470.97 3526.58 4477.53 3554.68 4477.53 3556.58C4477.53 3558.85 4460.78 3556.96 4440.38 3553.16C4419.62 3549.36 4383.93 3542.91 4360.99 3538.73C4338.05 3534.55 4292.16 3526.96 4259.03 3521.64C4170.16 3507.97 4086.77 3493.15 4084.58 3491.26C4083.85 3490.12 4087.49 3489.35 4092.59 3489.35C4098.42 3489.35 4102.43 3487.08 4102.43 3484.42C4102.43 3481.39 4106.07 3476.06 4110.08 3471.89C4114.45 3468.09 4124.28 3454.8 4131.92 3442.27C4139.57 3430.11 4150.86 3416.82 4157.05 3413.02C4162.87 3409.22 4167.98 3402.77 4167.98 3399.35C4167.98 3395.55 4175.63 3379.23 4184.36 3363.27C4199.3 3336.69 4201.84 3333.65 4214.59 3331.75C4221.87 3330.62 4231.7 3328.71 4235.71 3327.95C4240.08 3326.82 4253.19 3313.53 4264.85 3297.95C4276.86 3282.38 4290.34 3267.19 4295.44 3263.77C4311.09 3253.52 4334.41 3229.22 4340.6 3216.68C4343.88 3209.84 4345.69 3204.53 4344.24 3204.53C4343.15 3204.53 4347.15 3198.45 4353.34 3191.23C4359.53 3183.64 4364.63 3176.05 4364.63 3174.52C4364.63 3172.63 4373.37 3168.45 4383.93 3164.65C4394.13 3161.23 4406.88 3155.92 4411.97 3153.25L4421.08 3148.32L4423.27 3226.55C4424.36 3269.85 4428.36 3322.26 4431.64 3343.14Z" fill="white"/>
<path d="M4648.69 2836.15C4691.66 2839.95 4745.92 2846.78 4768.87 2850.96C4791.81 2855.51 4813.3 2858.93 4816.21 2858.93C4819.13 2858.93 4815.12 2862.35 4806.74 2866.14C4789.99 2874.12 4778.34 2887.79 4772.51 2906.79C4768.51 2919.7 4767.78 2920.08 4761.22 2913.62C4757.58 2910.2 4753.57 2904.5 4752.48 2900.7C4749.93 2891.97 4725.9 2885.14 4697.12 2885.14C4675.28 2885.14 4672 2886.28 4661.81 2896.53C4648.33 2910.2 4637.4 2912.1 4640.32 2900.7C4641.41 2896.53 4643.23 2893.12 4644.69 2893.12C4646.14 2893.12 4651.24 2885.9 4655.97 2877.16C4660.34 2868.81 4662.53 2862.73 4660.34 2864.25C4658.16 2865.38 4654.52 2864.63 4651.61 2861.98C4649.05 2859.31 4644.32 2856.65 4641.41 2855.89C4638.49 2855.13 4635.21 2853.24 4634.13 2851.71C4633.03 2850.2 4627.57 2848.68 4621.37 2848.29C4615.55 2847.92 4608.63 2845.26 4606.45 2842.22C4604.26 2838.8 4591.15 2835.39 4571.85 2833.11C4514.67 2826.66 4569.66 2828.55 4648.69 2836.15Z" fill="white"/>
<path d="M3993.18 2970.96C4005.92 2976.28 4018.3 2982.36 4020.49 2985.01C4023.03 2988.05 4022.67 2988.43 4018.66 2986.54C4015.75 2985.01 4016.11 2986.16 4020.12 2989.57C4023.76 2992.99 4025.58 2997.17 4023.76 2999.83C4021.94 3003.25 4023.03 3003.63 4027.77 3001.73C4033.23 2999.83 4033.6 3000.21 4029.95 3004.77C4024.13 3011.98 4016.11 3008.57 4012.84 2998.31C4010.66 2991.48 4010.29 2991.1 4007.01 2997.17C4005.19 3000.59 4001.91 3002.1 3999.73 3000.97C3997.18 2999.07 3996.45 3000.97 3997.9 3006.66C3999.36 3013.5 3998.63 3014.64 3994.26 3013.12C3990.26 3011.6 3989.53 3012.37 3990.98 3016.54C3992.08 3019.57 3991.35 3022.24 3989.53 3022.24C3987.34 3022.24 3985.89 3019.95 3985.89 3017.3C3985.89 3014.26 3984.43 3014.64 3982.25 3018.44C3979.7 3022.62 3978.61 3022.62 3978.61 3019.2C3978.61 3016.54 3976.78 3015.4 3974.96 3016.54C3972.78 3018.06 3972.42 3021.1 3973.5 3023.37C3975.33 3026.42 3974.6 3026.42 3970.96 3023C3963.67 3016.15 3958.94 3017.3 3964.4 3024.89C3969.14 3030.97 3968.77 3031.35 3962.94 3026.42C3959.66 3023.37 3955.3 3022.24 3954.21 3023.75C3952.74 3025.27 3953.84 3027.93 3956.75 3029.84C3963.67 3034.39 3961.49 3034.39 3946.56 3030.21C3939.64 3027.93 3930.17 3027.93 3923.62 3029.84C3914.15 3032.87 3912.69 3032.49 3914.51 3027.17C3916.33 3022.24 3915.97 3021.86 3911.24 3026.04C3908.32 3028.69 3906.86 3032.11 3907.95 3034C3909.05 3035.91 3908.32 3037.42 3906.13 3037.42C3901.4 3037.42 3897.4 3023.37 3900.68 3018.06C3902.13 3015.02 3901.76 3014.64 3899.21 3016.15C3897.03 3017.3 3890.83 3033.25 3885.74 3050.72C3880.27 3068.56 3874.08 3083 3871.9 3083C3870.08 3083 3868.99 3084.14 3870.44 3085.28C3871.54 3086.79 3870.44 3090.21 3867.53 3092.88C3862.44 3098.57 3836.57 3100.46 3836.57 3095.15C3836.57 3089.45 3868.26 3005.15 3877.73 2985.39C3883.19 2974.76 3889.38 2965.27 3891.93 2964.13C3894.48 2962.99 3913.05 2961.85 3933.45 2961.85C3964.4 2961.47 3973.5 2962.99 3993.18 2970.96Z" fill="white"/>
<path d="M2860.59 3138.44C2888.62 3150.22 3032.48 3196.17 3106.4 3216.68C3126.43 3222.38 3130.8 3227.69 3111.87 3223.13C3103.12 3220.86 3095.11 3218.58 3093.66 3217.82C3092.56 3217.06 3084.19 3215.92 3075.08 3215.55C3052.87 3214.78 3045.59 3212.5 3048.86 3207.19C3050.31 3204.53 3048.5 3204.91 3045.22 3207.95C3040.85 3211.37 3039.03 3211.75 3039.03 3208.7C3039.03 3206.04 3037.57 3204.91 3035.75 3206.42C3033.93 3207.57 3031.38 3206.81 3029.92 3204.91C3028.83 3203.01 3025.19 3201.11 3021.55 3201.11C3011.35 3201.49 2965.1 3188.96 2954.54 3183.26C2949.08 3180.23 2935.97 3176.81 2925.41 3175.67C2914.85 3174.52 2905.38 3172.25 2904.28 3171.1C2903.19 3169.59 2897.36 3166.54 2890.81 3164.27C2880.98 3160.47 2879.52 3160.47 2881.34 3165.79C2883.16 3169.96 2882.43 3170.72 2878.79 3168.45C2875.15 3166.17 2874.43 3166.93 2876.24 3172.25C2878.79 3178.7 2878.42 3178.7 2869.32 3172.25C2863.5 3168.45 2855.85 3166.55 2850.39 3167.69C2839.46 3169.97 2826.35 3164.27 2829.63 3158.58C2831.08 3156.67 2842.74 3155.16 2856.21 3155.16C2890.81 3154.78 2877.34 3149.07 2834.72 3146.04C2800.13 3143.38 2780.46 3147.18 2780.46 3156.29C2780.46 3158.2 2777.19 3158.96 2773.18 3157.81C2764.43 3155.54 2736.04 3162.38 2738.58 3166.55C2740.4 3169.21 2664.65 3183.64 2661.74 3180.98C2661.02 3179.84 2680.68 3173.76 2705.81 3167.31C2730.57 3160.47 2764.8 3148.32 2781.2 3139.58C2815.43 3122.49 2822.71 3122.49 2860.59 3138.44Z" fill="white"/>
<path d="M2860.94 2918.17C2879.15 2923.88 2896.63 2934.89 2887.17 2934.89C2884.98 2934.89 2880.25 2937.55 2877.34 2940.96C2874.06 2944 2871.5 2945.14 2871.5 2943.24C2871.5 2941.34 2868.96 2939.82 2866.04 2939.82C2863.13 2939.82 2860.59 2941.34 2860.59 2943.24C2860.59 2944.76 2858.39 2945.91 2856.21 2945.14C2853.67 2944.76 2851.84 2946.28 2852.21 2948.94C2852.94 2951.6 2850.02 2952.74 2846.02 2951.98C2842.01 2951.22 2838.73 2952.36 2838.73 2954.25C2838.73 2956.53 2836.91 2956.91 2835.09 2955.78C2832.91 2954.25 2832.54 2951.22 2833.99 2948.94C2835.45 2946.28 2833.99 2946.66 2830.35 2949.69C2823.8 2955.4 2821.98 2959.58 2827.81 2955.78C2829.99 2954.63 2831.45 2956.91 2831.45 2961.09C2831.45 2964.89 2829.63 2969.07 2827.44 2969.83C2825.62 2970.58 2823.43 2974.38 2822.71 2978.18C2822.35 2981.98 2818.7 2987.68 2814.7 2990.72C2808.87 2995.27 2808.51 2996.41 2813.24 2999.45C2817.97 3002.48 2817.61 3003.63 2811.42 3008.57C2804.5 3014.26 2802.67 3015.02 2795.4 3016.15C2793.57 3016.15 2790.66 3018.06 2788.84 3019.95C2787.02 3021.86 2787.75 3022.24 2790.3 3020.71C2793.21 3019.2 2794.3 3019.95 2793.21 3023C2792.11 3026.04 2788.11 3028.31 2784.11 3028.31C2780.46 3028.31 2778.27 3026.42 2779.37 3024.51C2780.83 3022.62 2779 3021.86 2775.73 3023.37C2772.45 3024.51 2768.81 3024.13 2767.36 3021.86C2766.26 3019.57 2762.62 3018.82 2759.71 3019.95C2756.79 3021.1 2755.7 3020.33 2756.79 3018.44C2759.34 3014.26 2747.68 3015.4 2736.04 3020.33C2732.39 3021.86 2729.48 3021.48 2729.12 3019.95C2727.66 3000.21 2724.01 2996.41 2713.82 3003.25C2682.5 3024.13 2646.81 3045.02 2642.08 3045.02C2634.43 3044.64 2696.34 2984.63 2733.12 2957.29C2791.76 2913.24 2817.97 2905.26 2860.94 2918.17Z" fill="white"/>
<path d="M1316.47 2189.39C1313.56 2190.53 1307.37 2195.09 1302.63 2199.65C1294.98 2206.48 1294.25 2210.66 1294.62 2236.1C1294.98 2271.04 1292.8 2298.38 1289.16 2304.84C1286.98 2308.26 1300.09 2309.01 1352.89 2307.12C1389.31 2305.98 1420.63 2303.7 1422.08 2301.81C1423.91 2300.28 1423.91 2291.93 1422.08 2283.58C1420.26 2273.32 1419.17 2271.42 1418.8 2277.87C1418.44 2283.96 1417.35 2285.47 1415.53 2282.81C1413.71 2279.78 1410.8 2279.4 1407.52 2281.67C1397.68 2288.51 1393.32 2285.47 1391.13 2271.04C1383.49 2215.59 1378.38 2204.2 1355.81 2192.05C1345.97 2186.73 1326.67 2185.59 1316.47 2189.39ZM1357.99 2209.52C1359.81 2211.41 1358.72 2216.74 1355.08 2222.81C1348.89 2232.68 1348.89 2232.68 1356.16 2228.5C1360.54 2226.23 1363.81 2222.81 1363.81 2220.91C1363.81 2214.08 1370.37 2217.12 1372.19 2224.71C1374.01 2232.68 1366.72 2243.7 1359.08 2243.7C1356.89 2243.7 1359.45 2248.64 1364.91 2254.33C1370.37 2260.02 1374.74 2266.11 1374.74 2267.62C1374.74 2272.18 1362 2270.66 1356.89 2265.35C1352.89 2261.55 1352.17 2261.55 1354.35 2265.35C1356.16 2268.76 1353.62 2270.28 1345.97 2270.28C1339.78 2270.28 1334.68 2268.76 1334.68 2266.86C1334.68 2264.96 1331.41 2264.2 1327.4 2265.35C1321.93 2266.86 1320.11 2265.35 1320.11 2259.65C1320.11 2255.09 1323.03 2250.15 1326.67 2247.88C1332.13 2244.84 1331.77 2243.7 1323.03 2240.28C1317.2 2238 1312.83 2233.44 1312.83 2230.03C1312.83 2225.47 1315.01 2224.71 1324.85 2226.61C1336.5 2229.26 1336.5 2229.26 1329.58 2221.29C1323.76 2214.83 1323.39 2212.56 1327.76 2207.24C1332.49 2201.16 1351.07 2202.3 1357.99 2209.52Z" fill="#0B0035"/>
<path d="M802.979 2419.15C729.781 2420.68 653.303 2423.33 632.913 2424.47L595.76 2426.75L594.674 2485.23C593.946 2517.52 594.674 2543.72 596.488 2543.72C597.954 2543.72 599.041 2517.9 599.041 2486.76V2429.79L687.534 2429.41C735.973 2429.41 804.435 2429.03 839.403 2429.03C875.089 2429.03 904.953 2427.13 907.495 2425.23C910.417 2422.95 922.063 2422.57 937 2424.09C957.39 2425.99 962.855 2425.61 966.494 2420.67C970.871 2415.35 969.406 2414.59 953.751 2415.35C943.92 2415.74 876.176 2417.25 802.979 2419.15Z" fill="#0B0035"/>
<path d="M2522.63 2481.82C2473.83 2482.58 2434.49 2484.47 2435.22 2485.99C2449.79 2520.17 2450.52 2520.93 2461.44 2520.93C2467.64 2520.93 2501.51 2519.03 2536.82 2517.14C2615.49 2512.57 2661.37 2504.61 2671.2 2494.34C2675.21 2490.17 2680.32 2486.76 2682.13 2486.76C2684.32 2486.76 2685.77 2484.85 2685.77 2482.96C2685.77 2480.67 2671.57 2479.54 2648.63 2479.92C2627.87 2480.67 2571.42 2481.43 2522.63 2481.82Z" fill="#0B0035"/>
<path d="M593.218 2831.59L593.577 2965.27L577.194 2965.65L560.802 2966.03L579.009 2969.45C596.488 2972.49 709.39 2988.43 766.564 2995.65C781.491 2997.55 818.274 3000.21 848.137 3001.35L902.4 3004.01L899.488 2995.27C894.024 2978.56 892.937 2922.73 898.033 2919.32C904.584 2915.14 934.816 2932.99 952.295 2950.84C959.943 2958.81 967.95 2965.27 970.133 2965.27C972.686 2965.27 974.142 2954.63 974.142 2933.75C974.142 2916.66 975.238 2898.43 975.966 2893.12C977.053 2887.79 977.053 2885.9 975.597 2888.17C972.686 2895.39 967.591 2894.25 965.038 2885.9C963.582 2880.96 960.302 2879.06 953.751 2879.82C949.015 2880.2 943.919 2879.06 942.464 2876.78C941.008 2874.5 942.095 2874.12 944.647 2876.03C947.928 2877.92 949.015 2876.78 947.928 2871.85C947.19 2867.67 943.919 2865.01 940.28 2865.01C936.999 2865.39 934.088 2863.11 934.088 2860.07C934.088 2857.03 932.632 2855.89 930.438 2857.03C928.624 2858.18 926.799 2857.41 926.799 2855.13C926.799 2852.85 925.712 2851.71 924.256 2852.47C917.696 2856.65 912.959 2843.36 914.056 2823.99C914.415 2812.22 913.687 2800.45 911.872 2797.79C909.689 2793.99 908.592 2795.51 908.592 2803.1C908.592 2809.19 907.136 2812.98 905.312 2811.84C903.497 2810.32 902.769 2812.98 903.856 2817.15C904.952 2821.71 903.856 2824.75 901.672 2824.75C899.119 2824.75 898.392 2822.86 899.488 2820.95C900.575 2818.68 899.847 2817.15 898.033 2817.15C895.849 2817.15 894.024 2818.68 894.024 2820.57C894.024 2824.37 902.769 2832.73 905.312 2831.21C906.039 2830.82 904.584 2832.73 901.672 2835C898.761 2837.66 894.752 2839.95 892.937 2839.95C891.472 2839.95 885.649 2844.88 880.553 2851.34C875.817 2857.41 868.897 2862.73 865.986 2862.73C862.346 2862.73 860.88 2865.01 861.977 2869.56C863.802 2876.4 857.241 2885.52 850.69 2885.52C848.865 2885.52 845.954 2887.41 844.498 2890.07C842.673 2892.73 843.401 2893.12 846.682 2891.21C849.962 2889.32 850.69 2889.7 848.865 2892.35C847.41 2895.01 840.49 2896.91 833.939 2896.91H821.186L820.458 2831.97L819.371 2766.65H784.772C752.725 2766.65 751.997 2766.65 773.843 2764.36L797.515 2762.09L762.925 2759.43C743.98 2757.91 712.302 2756.02 692.998 2755.25L657.312 2753.73V2814.5V2874.88L666.415 2873.36C671.51 2872.23 675.519 2872.98 675.519 2874.5C675.519 2877.54 655.487 2879.44 652.944 2877.16C651.478 2876.03 632.912 2892.73 620.159 2906.02C614.705 2912.1 609.241 2916.28 608.513 2915.52C606.689 2913.24 599.769 2790.57 600.865 2777.28C601.224 2770.83 600.497 2763.98 598.682 2762.09C597.216 2759.81 595.032 2744.24 594.304 2727.91C593.577 2711.2 593.218 2757.91 593.218 2831.59ZM730.15 2774.25C730.15 2776.14 716.31 2776.9 699.19 2776.14L667.871 2775L668.968 2812.22L670.055 2849.44L698.462 2850.58L726.501 2851.71L727.229 2820.19L727.956 2788.67L729.053 2819.82C730.15 2845.26 731.606 2851.34 735.973 2851.34C741.068 2851.34 741.437 2846.4 739.613 2817.92C738.157 2793.99 738.526 2789.05 741.068 2800.07C742.893 2808.42 744.708 2829.31 745.077 2846.4C746.174 2870.71 747.629 2877.92 751.997 2879.44C754.908 2880.2 748.357 2880.58 737.429 2879.82C726.501 2879.06 710.477 2878.3 702.102 2878.3C693.726 2877.92 684.622 2875.27 681.342 2872.23C678.43 2869.18 673.335 2866.53 670.423 2866.53C665.318 2866.53 664.591 2859.69 664.591 2819.06V2771.58H697.365C715.582 2771.58 730.15 2772.72 730.15 2774.25ZM813.907 2833.11C813.538 2880.58 812.81 2890.07 809.171 2885.14C805.89 2880.58 796.787 2877.92 779.307 2876.4C765.109 2875.27 753.452 2874.5 753.452 2874.12C753.093 2874.12 751.628 2856.27 750.172 2834.62C748.716 2808.8 749.085 2792.47 751.628 2787.92C754.549 2782.98 755.277 2791.72 755.636 2823.61C755.636 2859.31 756.733 2866.53 761.1 2866.53C765.467 2866.53 766.564 2859.31 767.292 2827.41L768.02 2788.67L770.204 2828.55C772.387 2865.01 772.387 2866.53 773.843 2843.74L775.299 2819.06L776.396 2842.6C777.124 2855.89 779.307 2866.53 781.132 2866.53C782.947 2866.53 785.14 2854 785.868 2838.8L786.955 2811.46L787.683 2840.71C788.411 2869.56 788.78 2870.32 797.515 2870.32H806.618V2824.75C806.618 2783.74 805.89 2779.18 800.436 2779.18C791.322 2779.18 785.868 2783.74 783.675 2792.47C782.219 2798.55 781.86 2797.79 781.491 2789.81C781.132 2781.83 778.948 2779.18 771.301 2778.05C765.468 2777.28 773.115 2776.14 787.683 2775.76L813.907 2775.38V2833.11Z" fill="#0B0035"/>
<path d="M394.376 3191.99L393.28 3403.53L378.712 3404.66C335.378 3408.46 185.333 3425.55 184.247 3427.07C181.694 3429.73 198.445 3428.6 258.541 3422.51C290.588 3419.48 439.535 3407.71 589.211 3396.31C739.255 3385.3 862.707 3375.05 863.803 3373.9C869.995 3367.83 856.515 3367.07 807.716 3370.87C778.222 3373.14 753.454 3374.28 752.357 3373.14C751.27 3372.01 749.814 3321.88 749.087 3261.49L747.99 3151.74L735.247 3147.56C728.327 3144.91 721.407 3144.14 720.31 3145.29C718.854 3146.42 719.951 3147.56 722.135 3147.56C724.687 3147.56 726.502 3150.22 726.502 3153.64C726.502 3156.67 727.958 3158.58 729.783 3157.43C731.607 3155.92 734.519 3160.47 735.975 3167.31C738.158 3178.32 738.886 3179.08 741.439 3172.25C743.253 3167.69 744.35 3186.3 744.35 3215.55C743.981 3243.64 742.895 3264.16 741.07 3261.87C739.614 3258.83 737.43 3264.53 735.975 3275.54C734.519 3286.94 730.51 3297.95 724.687 3304.79C716.671 3314.28 714.856 3315.04 709.392 3310.48C706.111 3307.44 704.287 3307.06 705.383 3308.97C706.839 3311.24 706.47 3315.42 704.655 3318.46C701.744 3323.4 700.647 3323.4 696.639 3318.84C692.64 3314.66 692.64 3313.9 696.639 3316.18C700.288 3318.46 700.647 3316.56 698.823 3308.21C695.911 3294.91 687.535 3280.48 682.799 3280.48C678.073 3280.48 678.073 3286.94 682.44 3289.59C684.265 3291.12 684.624 3296.43 683.168 3302.51C680.615 3312 678.801 3312.77 658.769 3313.9C599.042 3316.93 547.691 3315.8 517.1 3310.1C499.262 3306.68 476.318 3303.26 466.487 3302.89L448.639 3301.75V3327.95C448.639 3342.76 448.27 3349.98 447.183 3343.91C446.455 3338.2 443.544 3333.65 440.622 3333.65C437.711 3333.65 434.799 3330.23 433.343 3326.44C432.247 3321.88 426.423 3318.46 418.776 3316.94C404.577 3313.9 405.664 3319.98 403.48 3242.51C396.929 2991.85 396.929 2991.85 410.759 2985.01C418.407 2981.22 418.048 2980.84 407.119 2980.84L395.104 2980.46L394.376 3191.99Z" fill="#0B0035"/>
<path d="M977.783 2985.39C977.783 2989.19 980.336 2998.31 983.247 3005.9C986.159 3013.12 988.712 3020.71 988.712 3022.62C988.712 3033.62 954.84 3016.54 940.282 2998.31L933.721 2989.95L937.361 2998.31C943.194 3010.08 942.466 3011.6 933.362 3008.57C922.065 3004.77 908.594 3003.63 908.594 3005.9C908.594 3007.42 915.145 3016.92 923.162 3027.93C932.993 3041.22 943.194 3049.96 955.578 3056.03C968.68 3062.11 977.055 3069.32 984.703 3081.86C997.456 3101.99 999.999 3119.46 989.808 3116.04C986.159 3114.9 977.783 3112.24 971.232 3109.97C964.312 3107.68 960.304 3107.68 961.401 3109.97C965.04 3115.66 949.386 3113.77 943.553 3107.3C940.282 3104.26 937.73 3102.75 937.73 3104.64C937.73 3106.17 932.634 3099.33 926.442 3089.08C920.25 3079.2 914.417 3071.61 913.331 3072.74C912.234 3073.88 914.058 3078.83 917.339 3083.76C924.987 3095.15 924.618 3100.85 915.873 3103.88C906.769 3106.93 895.851 3099.71 871.083 3075.78C853.604 3058.69 853.604 3058.69 856.156 3069.71C863.435 3101.99 881.642 3130.09 902.771 3141.87C910.05 3146.04 915.873 3150.6 915.873 3151.74C915.873 3153.25 910.419 3155.54 903.499 3156.67C896.579 3158.2 882.37 3161.61 872.18 3165.03C856.516 3169.96 853.604 3171.87 854.701 3179.08C856.884 3195.79 918.067 3208.33 995.272 3208.33C1071.75 3208.33 1145.68 3195.03 1148.22 3180.98C1150.04 3170.72 1128.56 3161.61 1102.7 3161.23C1083.04 3160.85 1080.85 3160.09 1083.77 3154.4C1085.58 3150.98 1090.69 3146.8 1095.05 3145.66C1111.45 3140.35 1136.93 3109.59 1143.49 3087.56C1145.68 3079.58 1145.31 3078.83 1138.76 3082.61C1127.47 3089.08 1126.37 3087.56 1133.29 3076.16C1139.84 3065.91 1139.48 3065.91 1125.28 3078.06C1117.27 3084.9 1109.62 3090.59 1108.16 3090.59C1106.34 3090.59 1105.25 3085.28 1105.25 3078.83C1105.25 3064.39 1100.88 3065.53 1089.96 3083C1084.12 3092.12 1072.11 3101.61 1052.45 3112.24C1036.42 3120.97 1021.13 3128.19 1018.94 3128.57C1009.84 3128.57 1013.84 3104.26 1026.22 3084.9C1037.51 3066.67 1043.34 3062.49 1077.93 3046.16C1087.41 3041.6 1095.05 3034.39 1099.42 3025.66C1106.34 3012.37 1106.34 3011.6 1100.15 3005.15C1096.88 3001.35 1094.68 2995.65 1095.78 2992.23C1096.88 2988.81 1095.05 2990.34 1091.41 2995.65C1084.12 3007.04 1053.17 3037.42 1051.35 3035.53C1050.26 3034.77 1051.72 3028.31 1053.9 3021.86C1057.91 3010.08 1056.09 2983.88 1050.99 2984.63C1049.89 2984.63 1039.33 2995.65 1028.05 3008.94C1016.75 3022.24 1006.56 3031.73 1005.46 3030.59C1004.38 3029.45 1003.28 3024.51 1003.28 3019.95C1003.28 3015.02 1001.1 3009.7 998.184 3008.19C995.632 3006.66 989.808 2999.07 985.431 2991.85C980.336 2983.12 977.783 2980.83 977.783 2985.39Z" fill="#0B0035"/>
<path d="M690.087 3576.7C584.474 3597.21 577.554 3599.11 573.546 3607.09C567.722 3618.48 569.178 3639.36 576.467 3646.2C584.474 3653.8 642.017 3673.17 968.678 3778.75C1020.76 3795.46 1096.88 3820.14 1138.03 3833.81C1179.18 3847.1 1244 3868.37 1281.88 3880.9C1320.11 3893.44 1366.72 3909 1385.67 3915.84C1416.99 3926.85 1424.27 3928 1463.96 3928C1505.48 3928 1528.05 3924.2 1571.4 3910.15C1578.32 3907.87 1629.66 3893.82 1686.12 3878.63C1742.19 3863.43 1865.28 3830.4 1959.24 3804.95C2053.57 3779.5 2169.01 3748.36 2215.99 3736.21C2355.1 3700.13 2358.01 3698.99 2367.49 3692.92C2374.41 3687.98 2376.22 3683.42 2376.22 3670.13C2376.22 3650.38 2373.31 3647.34 2345.27 3639.75C2316.14 3632.15 2156.26 3596.84 2137.69 3594.17C2114.38 3590.75 2136.6 3596.84 2206.88 3612.78C2342.36 3643.92 2367.12 3650.76 2367.12 3656.46C2367.12 3659.5 2360.93 3664.43 2352.55 3667.1C2335.8 3672.79 2137.69 3724.82 2132.23 3724.82C2130.05 3724.82 2130.41 3721.02 2132.96 3715.33C2136.6 3706.97 2135.87 3704.69 2128.95 3697.48C2118.39 3687.22 2111.1 3687.98 2057.57 3702.04C2033.54 3708.49 1983.64 3721.4 1946.5 3730.89C1839.06 3757.86 1833.24 3759.76 1828.87 3766.59C1825.23 3773.05 1824.49 3772.67 1817.94 3764.32C1813.93 3759 1811.39 3754.44 1812.12 3753.68C1812.85 3752.92 1858.37 3740.76 1913 3726.71C1967.62 3712.67 2011.69 3700.51 2010.95 3699.37C2007.31 3695.57 1800.09 3750.27 1796.45 3756.34C1791.36 3764.7 1793.54 3770.39 1802.65 3772.67C1813.93 3775.7 1814.3 3780.26 1803.74 3783.3C1791.72 3786.72 1775.34 3800.39 1782.98 3800.77C1786.26 3800.77 1793.17 3803.05 1798.64 3806.09C1808.11 3811.02 1807.74 3811.02 1785.17 3817.11C1767.69 3822.04 1556.83 3876.73 1516.04 3886.6C1467.6 3899.13 1438.47 3895.71 1352.89 3867.99C1197.03 3817.11 1159.51 3805.33 1081.58 3780.26C1033.51 3764.7 968.678 3744.18 937.728 3734.31C906.768 3724.44 853.234 3707.35 818.644 3695.95C784.413 3684.94 722.862 3665.19 682.07 3652.66C591.394 3624.56 577.195 3619.24 577.195 3612.78C577.195 3605.57 590.666 3601.77 679.159 3584.3C786.956 3563.03 789.14 3562.27 775.669 3562.27C769.846 3562.27 731.238 3568.73 690.087 3576.7Z" fill="#0B0035"/>
</g>
<defs>
<clipPath id="paint0_diamond_63_10_clip_path"><path d="M-16 2712L5008 3656V5008H-16V2712Z"/></clipPath><linearGradient id="paint0_diamond_63_10" x1="0" y1="0" x2="500" y2="500" gradientUnits="userSpaceOnUse">
<stop stop-color="#D08700"/>
<stop offset="1" stop-color="#6A4500" stop-opacity="0"/>
</linearGradient>
<clipPath id="clip0_63_10">
<rect width="5000" height="5000" fill="white"/>
</clipPath>
</defs>
</svg>
