<svg width="32" height="38" viewBox="0 0 32 38" fill="none" xmlns="http://www.w3.org/2000/svg">
<g clip-path="url(#clip0_2226_4002)">
<path d="M30.8118 11.6411C31.2969 11.8154 31.42 12.2191 31.4192 12.7247C31.4114 17.3511 31.4068 21.9775 31.4053 26.604C31.4064 26.6237 31.4087 26.6434 31.4122 26.6629C31.3623 26.7618 31.4141 26.8765 31.3709 26.9765C31.2692 27.5205 31.1011 28.0504 30.8704 28.5544C30.4468 29.4048 29.7836 30.116 28.9607 30.6023C27.6307 31.4268 26.3069 32.2631 24.981 33.0953C23.5913 33.9676 22.2018 34.8402 20.8124 35.7131C19.9221 36.2698 19.0482 36.858 18.1342 37.3695C18.0089 37.3968 17.8788 37.3944 17.7545 37.3627C17.6197 37.3213 17.5 37.242 17.41 37.1344C17.3201 37.0268 17.2639 36.8956 17.2482 36.7569C17.2125 36.3707 17.2349 35.9834 17.2338 35.5968C17.2302 34.3353 17.233 33.0739 17.2314 31.8124C17.2451 31.7041 17.2377 31.5942 17.2096 31.4887C17.215 31.3801 17.2255 31.2715 17.2253 31.163C17.2189 27.695 17.217 24.227 17.1976 20.759C17.1775 20.5637 17.2161 20.3668 17.3085 20.193C17.401 20.0193 17.5433 19.8763 17.7176 19.7822C21.5765 17.3454 25.4209 14.8814 29.2678 12.4223C29.6639 12.1185 30.0907 11.8563 30.5415 11.6397C30.6295 11.6118 30.7241 11.6123 30.8118 11.6411Z" fill="#FEB000"/>
<path d="M2.93363 12.4929C3.07612 12.6194 3.24012 12.72 3.41806 12.7899C3.51066 12.8033 3.59907 12.837 3.67676 12.8886C3.75445 12.9402 3.81946 13.0083 3.867 13.088C3.89088 13.1213 3.92166 13.1492 3.95727 13.1698C3.99289 13.1903 4.03253 13.2032 4.07356 13.2075C4.33618 13.279 4.56935 13.4305 4.73993 13.6405C4.80498 13.7265 4.90068 13.7847 5.0076 13.8034C5.10033 13.8176 5.18876 13.8517 5.26662 13.9035C5.34448 13.9552 5.40985 14.0233 5.45808 14.1029C5.60049 14.2298 5.76474 14.3304 5.94304 14.3999C6.03549 14.4136 6.12371 14.4474 6.20126 14.4991C6.2788 14.5507 6.34374 14.6188 6.39133 14.6983C6.41515 14.7318 6.44604 14.7598 6.48186 14.7804C6.51768 14.8009 6.55758 14.8136 6.59881 14.8174C6.76208 14.8941 6.95568 14.917 7.04935 15.1172C7.19184 15.2437 7.3558 15.3442 7.53367 15.4142C7.62636 15.4274 7.71486 15.461 7.79258 15.5127C7.87031 15.5644 7.93527 15.6327 7.98263 15.7126C8.16404 15.8626 8.36473 15.9881 8.57948 16.086C8.63854 16.084 8.69678 16.1 8.74623 16.132C8.79567 16.164 8.8339 16.2104 8.85567 16.2647C8.92066 16.3507 9.01639 16.409 9.12333 16.4276C9.21606 16.4417 9.3045 16.4759 9.38236 16.5276C9.46022 16.5794 9.52559 16.6475 9.57382 16.7271C9.71608 16.8539 9.88009 16.9546 10.0581 17.0244C10.1507 17.0377 10.2391 17.0714 10.3168 17.123C10.3945 17.1746 10.4595 17.2428 10.5071 17.3225C10.531 17.3557 10.5618 17.3835 10.5974 17.4041C10.633 17.4246 10.6726 17.4375 10.7136 17.4419C10.976 17.5137 11.2091 17.6649 11.3801 17.8744C11.445 17.9609 11.541 18.0194 11.6484 18.0376C11.7409 18.0521 11.8291 18.0864 11.9068 18.1381C11.9845 18.1898 12.0499 18.2577 12.0983 18.337C12.2797 18.4869 12.4804 18.6124 12.6952 18.7102C12.7543 18.7081 12.8126 18.7242 12.8621 18.7562C12.9115 18.7883 12.9497 18.8347 12.9714 18.8892C13.0365 18.9749 13.1321 19.0331 13.2389 19.0519C13.3317 19.0658 13.4203 19.0999 13.4982 19.1518C13.5761 19.2036 13.6414 19.2719 13.6894 19.3517C13.832 19.4781 13.996 19.5786 14.1739 19.6486C14.2672 19.661 14.3563 19.695 14.4339 19.7476C14.5115 19.8003 14.5756 19.8702 14.621 19.9518C14.8131 20.1761 14.911 20.4646 14.8948 20.758C14.8949 22.0964 14.9032 23.4348 14.9085 24.7732C14.929 24.8601 14.9346 24.9497 14.9253 25.0385C14.926 28.8767 14.9259 32.7148 14.9252 36.553C14.9361 36.6416 14.9295 36.7314 14.9057 36.8175C14.8066 37.0509 14.6295 37.2435 14.404 37.3631C14.2791 37.3966 14.1475 37.3966 14.0226 37.3633C13.6474 37.2134 13.2952 37.0125 12.976 36.7666C12.0959 36.2441 11.2353 35.6828 10.3687 35.1337C9.47105 34.5648 8.57796 33.9874 7.67844 33.422C6.56794 32.7241 5.44878 32.0424 4.34136 31.3388C3.70853 30.9712 3.09636 30.5699 2.50757 30.1366C1.90867 29.6393 1.44493 29.0018 1.15848 28.2821C0.948782 27.8121 0.822709 27.3099 0.785816 26.7975C0.766354 26.7103 0.760971 26.6206 0.769866 26.5318C0.769238 21.8593 0.769256 17.1867 0.769921 12.5142C0.760225 12.4255 0.766086 12.3358 0.787247 12.249C0.809098 12.1415 0.856796 12.0408 0.926311 11.9553C0.995825 11.8699 1.08511 11.8023 1.18663 11.7582C1.28815 11.714 1.39891 11.6947 1.50956 11.7019C1.62021 11.709 1.7275 11.7424 1.82235 11.7992C2.06938 11.9413 2.30751 12.1017 2.54965 12.2539C2.62994 12.2539 2.70859 12.2763 2.77654 12.3186C2.84448 12.3609 2.89894 12.4213 2.93363 12.4929Z" fill="#FE005F"/>
<path d="M12.2113 15.5351L11.7243 15.2021C11.5233 15.2189 11.428 15.0246 11.2784 14.9387L10.9056 14.6859C10.6889 14.6282 10.4941 14.5087 10.3455 14.3424L9.97158 14.0901C9.79014 14.0578 9.62859 13.9568 9.52126 13.8086L9.22897 13.6238C8.98162 13.5468 8.76015 13.4046 8.58834 13.2126C8.46996 13.1579 8.36145 13.0844 8.26713 12.995C8.06601 13.0124 7.97079 12.8177 7.82115 12.732L7.33396 12.3998C7.13343 12.4154 7.03788 12.2216 6.88826 12.1357L6.51454 11.8833C6.33301 11.8512 6.17134 11.7503 6.06402 11.602L5.46753 11.2094C5.399 11.2049 5.33259 11.184 5.274 11.1485C5.21541 11.1131 5.16637 11.0641 5.13108 11.0058C5.01274 10.9511 4.90425 10.8776 4.80992 10.7882C4.60869 10.8059 4.51354 10.611 4.36389 10.5254L3.87686 10.1923C3.67593 10.2091 3.5806 10.0148 3.43098 9.92895C3.29735 9.83626 3.15889 9.75055 3.0162 9.67218C2.90637 9.60587 2.81531 9.51315 2.75149 9.40265C2.68767 9.29216 2.65318 9.16748 2.65121 9.04025C2.64925 8.91302 2.67988 8.78736 2.74026 8.67499C2.80064 8.56263 2.8888 8.4672 2.99652 8.3976C4.09339 7.71323 5.19257 7.03324 6.28833 6.34679C7.78031 5.41212 9.27109 4.47516 10.7607 3.5359C11.8485 2.85182 12.924 2.14291 14.0297 1.49472C14.49 1.21411 15.0154 1.05502 15.5557 1.03267C15.6983 0.963167 15.8549 1.04479 15.9983 0.984388C16.0062 0.981454 16.0147 0.980144 16.0231 0.980537C16.0316 0.98093 16.0399 0.983018 16.0475 0.986675C16.083 1.03425 16.1084 1.08841 16.1223 1.14591C16.1361 1.20341 16.1381 1.26308 16.1282 1.32137C16.1293 5.59215 16.1292 9.86294 16.1279 14.1337C16.1281 14.1831 16.125 14.2324 16.1185 14.2814C16.1147 14.3147 16.1029 14.3466 16.084 14.3744C16.0651 14.4022 16.0397 14.4251 16.01 14.4412C15.0517 14.912 14.1885 15.5665 13.2715 16.1171C13.2554 16.1263 13.2388 16.1344 13.2216 16.1415C13.1099 16.1699 13.0385 16.1058 12.9785 16.0156C12.8601 15.961 12.7516 15.8874 12.6573 15.7979C12.4561 15.8157 12.3609 15.6208 12.2113 15.5351Z" fill="#0080FC"/>
<path d="M16.1102 0.985396L16.4737 0.980713C16.5654 1.03373 16.6709 0.979456 16.7636 1.02477C17.8872 1.22025 18.7883 1.94192 19.7429 2.5294C21.3482 3.5173 22.941 4.52905 24.5382 5.53244C26.0725 6.49635 27.6068 7.46035 29.141 8.42444C29.2728 8.51862 29.3785 8.64413 29.4483 8.78937C29.479 8.92574 29.4794 9.0671 29.4494 9.20363C29.3499 9.4087 29.1872 9.57729 28.9848 9.68516C25.7104 11.772 22.4371 13.8607 19.1647 15.9513C19.0788 16.0061 18.993 16.0611 18.9071 16.116C18.2353 15.7567 17.6101 15.3084 16.9586 14.9103C16.7274 14.7541 16.4858 14.6134 16.2355 14.4892C16.1476 14.4506 16.0649 14.409 16.0797 14.2796C16.0805 9.96405 16.0811 5.64907 16.0816 1.33467C16.0613 1.21772 16.0711 1.09759 16.1102 0.985396Z" fill="#006EC4"/>
<path d="M16.1015 14.3892C16.304 14.417 16.4943 14.501 16.6504 14.6315C17.3524 15.0692 18.0527 15.5101 18.7514 15.9541C18.8096 16.0018 18.8619 16.0562 18.9072 16.116C18.2057 16.5689 17.5042 17.022 16.8028 17.4752C16.7336 17.52 16.6679 17.5711 16.6006 17.6193C16.5627 17.6885 16.5075 17.7469 16.4403 17.789C16.373 17.8311 16.296 17.8554 16.2165 17.8597C16.0025 17.9966 15.8331 17.8478 15.6604 17.7498C15.494 17.6555 15.3356 17.5447 15.1737 17.4411C15.0067 17.4335 14.9198 17.2761 14.7899 17.199L14.3579 16.8949C14.1766 16.8599 14.0164 16.7561 13.9116 16.6058L13.314 16.2252C13.2844 16.2247 13.2561 16.2131 13.2348 16.1927C13.2136 16.1723 13.2009 16.1447 13.1995 16.1155C13.5487 15.8414 13.9183 15.5938 14.3053 15.3748C14.7154 15.1034 15.1318 14.8431 15.5479 14.5825C15.6925 14.468 15.8689 14.3995 16.0536 14.386C16.071 14.3626 16.0869 14.3648 16.1015 14.3892Z" fill="#00539A"/>
</g>
<defs>
<clipPath id="clip0_2226_4002">
<rect width="30.6521" height="36.4078" fill="white" transform="translate(0.76709 0.980469)"/>
</clipPath>
</defs>
</svg>
