<svg width="5000" height="5000" viewBox="0 0 5000 5000" fill="none" xmlns="http://www.w3.org/2000/svg">
<g filter="url(#filter0_d_39_2)">
<path d="M1475.86 259C1485.76 259 1494.18 266.252 1495.64 276.05L1504.73 337.049C1537.27 344.537 1567.92 356.94 1595.87 373.435L1639.89 337.163C1647.84 330.612 1659.47 331.172 1666.76 338.456L1738.57 410.271C1745.57 417.275 1746.4 428.353 1740.5 436.314L1706.72 481.932C1724.56 510.722 1737.99 542.524 1746.09 576.4L1799.29 581.534C1809.55 582.524 1817.37 591.141 1817.37 601.442V703.003C1817.37 712.909 1810.12 721.323 1800.32 722.784L1745.14 731.013C1736.62 764.772 1722.78 796.415 1704.58 825.002L1739.21 867.035C1745.77 874.985 1745.21 886.611 1737.92 893.896L1666.11 965.712C1659.11 972.717 1648.03 973.538 1640.07 967.644L1592.21 932.212C1564.04 948.34 1533.21 960.346 1500.53 967.407L1494.84 1026.44C1493.85 1036.7 1485.23 1044.52 1474.93 1044.52H1373.37C1363.46 1044.52 1355.05 1037.27 1353.59 1027.47L1343.91 962.533C1313.8 954.016 1285.48 941.243 1259.64 924.902L1209.33 966.356C1201.38 972.907 1189.75 972.349 1182.47 965.064L1110.66 893.25C1103.65 886.245 1102.83 875.167 1108.72 867.206L1150.71 810.505C1136.36 785.132 1125.34 757.625 1118.25 728.578L1049.93 721.986C1039.68 720.997 1031.85 712.38 1031.85 702.078V600.518C1031.85 590.611 1039.1 582.198 1048.9 580.736L1119.45 570.216C1126.97 541.306 1138.39 513.972 1153.13 488.81L1110.01 436.485C1103.46 428.535 1104.02 416.909 1111.3 409.625L1183.11 337.809C1190.12 330.804 1201.2 329.982 1209.16 335.877L1263.58 376.168C1289.62 360.216 1318.11 347.853 1348.34 339.767L1354.39 277.079C1355.38 266.825 1363.99 259 1374.29 259H1475.86ZM1423.94 491.299C1335.32 491.299 1263.48 563.141 1263.48 651.761C1263.48 740.381 1335.32 812.222 1423.94 812.222C1512.56 812.222 1584.4 740.381 1584.4 651.761C1584.4 563.141 1512.56 491.299 1423.94 491.299Z" fill="#070137"/>
<circle cx="2241.02" cy="667.202" r="120.849" fill="#D08700"/>
<rect x="294" y="4706.25" width="4209.58" height="34.912" rx="10" fill="#0B0035"/>
<rect x="2277.27" y="1400.35" width="122.192" height="3305.9" fill="#0B0035"/>
<rect x="4092.7" y="1400.35" width="122.192" height="3305.9" fill="#0B0035"/>
<rect x="2369.92" y="2310.75" width="1722.77" height="128.906" fill="#0B0035"/>
<rect x="2369.92" y="3406.45" width="1722.77" height="128.906" fill="#0B0035"/>
<rect x="2399.46" y="4475.3" width="1722.77" height="128.906" fill="#0B0035"/>
<path d="M3824.6 3867.02C3833.99 3867.02 3841.6 3874.63 3841.6 3884.02V4458.3C3841.6 4467.69 3833.99 4475.3 3824.6 4475.3H2847.49C2838.1 4475.3 2830.49 4467.69 2830.49 4458.3V3884.02C2830.49 3874.63 2838.1 3867.02 2847.49 3867.02H3824.6ZM3031.91 4056.35V4165.12H3272.26V4056.35H3031.91Z" fill="#D08700"/>
<rect x="3473.68" y="3868.37" width="24.1699" height="606.932" fill="#D08700"/>
<path d="M3440.57 2798.18C3449.96 2798.18 3457.57 2805.79 3457.57 2815.18V3389.45C3457.57 3398.84 3449.96 3406.45 3440.57 3406.45H2553.43C2544.04 3406.45 2536.43 3398.84 2536.43 3389.45V2815.18C2536.43 2805.79 2544.04 2798.18 2553.43 2798.18H3440.57ZM2719.92 2987.51V3096.27H2938.89V2987.51H2719.92Z" fill="#D08700"/>
<rect x="3122.38" y="2799.52" width="22.0193" height="606.932" fill="#D08700"/>
<path d="M3859.51 1702.48C3868.9 1702.48 3876.51 1710.09 3876.51 1719.48V2293.75C3876.51 2303.14 3868.9 2310.75 3859.51 2310.75H2882.41C2873.02 2310.75 2865.41 2303.14 2865.41 2293.75V1719.48C2865.41 1710.09 2873.02 1702.48 2882.41 1702.48H3859.51ZM3066.82 1891.81V2000.57H3307.18V1891.81H3066.82Z" fill="#D08700"/>
<rect x="3508.59" y="1703.82" width="24.1699" height="606.932" fill="#D08700"/>
<circle cx="4199.45" cy="3365.5" r="505.553" fill="#D08700"/>
<g clip-path="url(#clip0_39_2)">
<path d="M4467.81 3140.69C4463.45 3137.25 4458.45 3134.7 4453.11 3133.18C4447.76 3131.67 4442.16 3131.22 4436.64 3131.87C4431.12 3132.51 4425.78 3134.24 4420.93 3136.95C4416.08 3139.66 4411.81 3143.3 4408.36 3147.66L4138.21 3489.36L4032.99 3372.17C4029.28 3368.04 4024.78 3364.67 4019.77 3362.27C4014.76 3359.87 4009.32 3358.48 4003.77 3358.18C3992.56 3357.58 3981.57 3361.44 3973.22 3368.93C3964.87 3376.43 3959.83 3386.93 3959.23 3398.13C3958.62 3409.33 3962.49 3420.32 3969.99 3428.67L4108.14 3582.53C4108.14 3582.53 4112.13 3586.67 4114.02 3588.16C4118.38 3591.61 4123.38 3594.16 4128.73 3595.68C4134.08 3597.19 4139.67 3597.64 4145.19 3597C4150.71 3596.35 4156.06 3594.62 4160.91 3591.91C4165.76 3589.2 4170.03 3585.56 4173.48 3581.2L4474.78 3200.1C4478.23 3195.75 4480.78 3190.75 4482.3 3185.41C4483.81 3180.06 4484.26 3174.47 4483.61 3168.96C4482.96 3163.44 4481.24 3158.1 4478.52 3153.25C4475.81 3148.4 4472.17 3144.14 4467.81 3140.69Z" fill="white"/>
</g>
<path d="M1086.23 1427.21L978.813 1497.03L950.615 1524.56V1685.69L905.632 1815.94V1850.85L992.912 1894.49L1105.7 1913.29L1141.29 1853.54L1137.93 1783.04L1178.21 1804.53L1258.11 1779.02L1283.62 1669.58L1323.9 1605.8L1274.89 1384.24L1144.64 1419.15L1086.23 1427.21Z" fill="#CAC294"/>
<path d="M682.061 1901.88L892.875 1811.91C958.158 1867.33 993.145 1887.02 1054.01 1911.28C1084.25 1912.92 1100.14 1912.34 1121.82 1901.88C1134.59 1880.14 1138.77 1865.82 1145.99 1840.11L1177.54 1852.87C1226.61 1877.64 1248.11 1889.99 1283.62 1911.28C1337.79 1951.92 1360.38 1974.03 1391.04 2012.66C1449.34 2075.26 1476.5 2103.75 1523.7 2153.26L1525.99 2155.66L1663.63 2291.28H1709.28L1805.96 2259.73L1946.95 2207.36L2057.73 2165.06C2066.13 2196.81 2070.71 2212.91 2078.54 2237.57C2086.86 2273.68 2097.52 2288.04 2119.5 2310.75L2146.35 2326.19L1973.81 2432.27L1663.63 2581.32H1614.61L1345.39 2953.27C1083.89 3022.7 929.875 3015.63 647.149 2953.27C654.288 2874.29 658.134 2829.91 664.605 2750.51C610.807 2743.31 575.89 2732.57 502.801 2698.14C488.984 2682.45 480.701 2665.83 465.203 2625.63C456.512 2591.13 453.356 2572.44 451.104 2540.37L502.801 2294.64L574.639 2042.87L682.061 1901.88Z" fill="#0B0035"/>
<path d="M664.605 2750.51C610.807 2743.31 575.89 2732.57 502.801 2698.14C488.984 2682.45 480.701 2665.83 465.203 2625.63C456.512 2591.13 453.356 2572.44 451.104 2540.37L502.801 2294.64L574.639 2042.87L682.061 1901.88L892.875 1811.91C958.158 1867.33 993.145 1887.02 1054.01 1911.28C1084.25 1912.92 1100.14 1912.34 1121.82 1901.88C1134.59 1880.14 1138.77 1865.82 1145.99 1840.11L1177.54 1852.87C1226.61 1877.64 1248.11 1889.99 1283.62 1911.28C1337.79 1951.92 1360.38 1974.03 1391.04 2012.66C1450.28 2076.26 1477.37 2104.66 1525.99 2155.66L1663.63 2291.28H1709.28L1805.96 2259.73L1946.95 2207.36L2057.73 2165.06C2066.13 2196.81 2070.71 2212.91 2078.54 2237.57C2086.86 2273.68 2097.52 2288.04 2119.5 2310.75L2146.35 2326.19L1973.81 2432.27L1663.63 2581.32H1614.61L1345.39 2953.27C1083.89 3022.7 929.875 3015.63 647.149 2953.27C654.288 2874.29 658.134 2829.91 664.605 2750.51ZM664.605 2750.51C762.714 2759.56 818.81 2764.66 884.819 2772.67L1008.35 2784.08L1036.55 2612.88L713.616 2514.85L796.196 2237.57" stroke="#06001D" stroke-width="20"/>
<path d="M2228.93 2047.57C2166.06 2095.45 2129.78 2122.84 2061.09 2173.79C2064.35 2210.61 2067.25 2226.15 2074.51 2243.61C2091.52 2275.07 2102.7 2289.83 2124.2 2313.44C2160.81 2305.85 2178.1 2299.6 2199.39 2282.55C2249.55 2254.73 2271.84 2238.05 2292.04 2204.67C2295.27 2178.79 2290.86 2170.56 2273.24 2165.73L2199.39 2204.67C2228.23 2185.8 2245.05 2165.73 2273.24 2156.33C2301.44 2146.93 2320.09 2158.04 2341.72 2156.33C2378.7 2121.45 2380.89 2111.06 2380.66 2094.57C2371.29 2072.89 2362.63 2062.66 2341.72 2047.57C2297.68 2035.42 2272.98 2037.75 2228.93 2047.57Z" fill="#CAC294" stroke="#06001D" stroke-width="15"/>
<mask id="path-21-inside-1_39_2" fill="white">
<path d="M919.059 1854.88L885.49 1828.03L902.946 1797.14L907.646 1785.06L916.374 1764.92L920.402 1756.19L924.431 1744.78L927.116 1728.66L927.116 1713.89L929.13 1697.78L927.787 1682.34L924.431 1661.52L921.745 1648.1L920.402 1637.35L918.388 1627.28L917.045 1618.55L912.346 1606.47L911.003 1594.38L907.646 1583.64L904.96 1570.89L900.932 1559.47L898.247 1545.37L895.561 1532.62L891.533 1521.2L890.19 1507.1L886.833 1496.36L885.49 1474.88L888.176 1420.5L889.518 1403.71L894.89 1388.94L898.246 1378.2L902.946 1364.1L908.317 1351.34L917.045 1336.57L923.759 1324.49L933.159 1314.42L947.258 1299.65L960.014 1288.9L968.071 1282.86L980.827 1276.82L993.583 1273.46L1009.7 1270.11L1022.45 1264.74L1070.79 1266.08L1100.33 1264.74L1117.12 1266.75L1134.57 1270.11L1152.7 1272.79L1173.51 1277.49L1191.64 1280.18L1201.04 1285.55L1220.51 1286.89L1235.28 1291.59L1257.44 1291.59L1274.89 1291.59L1286.31 1291.59L1288.99 1289.58L1299.73 1284.21L1322.56 1285.55L1335.99 1289.58L1350.76 1302.33L1362.17 1317.1L1372.92 1331.87L1379.63 1347.32L1379.63 1362.76L1377.62 1375.51L1372.92 1384.24L1366.87 1393.64L1356.8 1403.04L1344.05 1413.11L1327.93 1419.15L1314.51 1426.54L1303.09 1433.92L1300.41 1448.69L1306.45 1464.14L1309.81 1484.95L1317.19 1505.76L1320.55 1527.25L1323.9 1546.72L1326.59 1559.47L1331.29 1578.94L1331.29 1622.58L1326.59 1638.02L1318.53 1649.44L1307.79 1660.18L1305.11 1673.61L1302.42 1687.04L1297.05 1703.15L1293.02 1721.28L1287.65 1743.43L1282.28 1764.92L1275.57 1778.34L1268.18 1787.74L1259.45 1798.49L1249.38 1808.56L1231.93 1814.6L1211.11 1814.6L1196.34 1813.26L1179.56 1811.91L1162.1 1811.91L1162.1 1829.37L1159.42 1870.32L1140.62 1889.12L1119.13 1889.12L1119.13 1869.65L1117.79 1783.72L1117.79 1761.56L1120.48 1758.87L1132.56 1758.87L1139.27 1762.9L1150.69 1766.93L1164.79 1771.63L1174.86 1778.34L1186.94 1783.72L1199.7 1786.4L1211.11 1786.4L1221.18 1786.4L1231.93 1783.72L1238.64 1780.36L1246.7 1772.3L1254.75 1761.56L1258.78 1750.15L1262.81 1738.06L1265.49 1727.99L1268.18 1716.58L1269.52 1701.14L1272.21 1689.72L1273.55 1674.28L1275.57 1662.87L1278.25 1649.44L1280.94 1643.4L1285.64 1637.35L1295.04 1632.65L1303.09 1625.94L1307.79 1615.2L1307.79 1600.43L1305.78 1579.61L1301.75 1560.14L1300.41 1544.03L1295.71 1530.6L1293.69 1517.85L1289.66 1503.08L1285.64 1486.96L1282.28 1472.86L1278.25 1462.12L1270.87 1450.04L1264.15 1439.3L1253.41 1433.92L1243.34 1429.22L1230.58 1425.87L1216.48 1423.85L1203.73 1424.52L1192.98 1429.22L1184.93 1437.95L1177.54 1448.69L1170.16 1462.79L1165.46 1484.28L1162.1 1501.06L1154.72 1517.85L1145.99 1530.6L1133.9 1544.7L1114.43 1557.46L1103.02 1558.8L1092.95 1556.12L1083.55 1544.7L1078.85 1534.63L1070.12 1522.55L1056.02 1512.48L1041.92 1510.46L1029.17 1509.79L1016.41 1516.5L1007.68 1525.23L997.611 1541.35L994.926 1564.84L996.94 1585.66L1006.34 1599.08L1019.1 1612.51L1030.51 1621.24L1039.24 1631.98L1031.18 1644.74L1011.04 1662.87L963.371 1713.22L949.272 1740.75L939.872 1779.02L919.059 1854.88Z"/>
</mask>
<path d="M919.059 1854.88L885.49 1828.03L902.946 1797.14L907.646 1785.06L916.374 1764.92L920.402 1756.19L924.431 1744.78L927.116 1728.66L927.116 1713.89L929.13 1697.78L927.787 1682.34L924.431 1661.52L921.745 1648.1L920.402 1637.35L918.388 1627.28L917.045 1618.55L912.346 1606.47L911.003 1594.38L907.646 1583.64L904.96 1570.89L900.932 1559.47L898.247 1545.37L895.561 1532.62L891.533 1521.2L890.19 1507.1L886.833 1496.36L885.49 1474.88L888.176 1420.5L889.518 1403.71L894.89 1388.94L898.246 1378.2L902.946 1364.1L908.317 1351.34L917.045 1336.57L923.759 1324.49L933.159 1314.42L947.258 1299.65L960.014 1288.9L968.071 1282.86L980.827 1276.82L993.583 1273.46L1009.7 1270.11L1022.45 1264.74L1070.79 1266.08L1100.33 1264.74L1117.12 1266.75L1134.57 1270.11L1152.7 1272.79L1173.51 1277.49L1191.64 1280.18L1201.04 1285.55L1220.51 1286.89L1235.28 1291.59L1257.44 1291.59L1274.89 1291.59L1286.31 1291.59L1288.99 1289.58L1299.73 1284.21L1322.56 1285.55L1335.99 1289.58L1350.76 1302.33L1362.17 1317.1L1372.92 1331.87L1379.63 1347.32L1379.63 1362.76L1377.62 1375.51L1372.92 1384.24L1366.87 1393.64L1356.8 1403.04L1344.05 1413.11L1327.93 1419.15L1314.51 1426.54L1303.09 1433.92L1300.41 1448.69L1306.45 1464.14L1309.81 1484.95L1317.19 1505.76L1320.55 1527.25L1323.9 1546.72L1326.59 1559.47L1331.29 1578.94L1331.29 1622.58L1326.59 1638.02L1318.53 1649.44L1307.79 1660.18L1305.11 1673.61L1302.42 1687.04L1297.05 1703.15L1293.02 1721.28L1287.65 1743.43L1282.28 1764.92L1275.57 1778.34L1268.18 1787.74L1259.45 1798.49L1249.38 1808.56L1231.93 1814.6L1211.11 1814.6L1196.34 1813.26L1179.56 1811.91L1162.1 1811.91L1162.1 1829.37L1159.42 1870.32L1140.62 1889.12L1119.13 1889.12L1119.13 1869.65L1117.79 1783.72L1117.79 1761.56L1120.48 1758.87L1132.56 1758.87L1139.27 1762.9L1150.69 1766.93L1164.79 1771.63L1174.86 1778.34L1186.94 1783.72L1199.7 1786.4L1211.11 1786.4L1221.18 1786.4L1231.93 1783.72L1238.64 1780.36L1246.7 1772.3L1254.75 1761.56L1258.78 1750.15L1262.81 1738.06L1265.49 1727.99L1268.18 1716.58L1269.52 1701.14L1272.21 1689.72L1273.55 1674.28L1275.57 1662.87L1278.25 1649.44L1280.94 1643.4L1285.64 1637.35L1295.04 1632.65L1303.09 1625.94L1307.79 1615.2L1307.79 1600.43L1305.78 1579.61L1301.75 1560.14L1300.41 1544.03L1295.71 1530.6L1293.69 1517.85L1289.66 1503.08L1285.64 1486.96L1282.28 1472.86L1278.25 1462.12L1270.87 1450.04L1264.15 1439.3L1253.41 1433.92L1243.34 1429.22L1230.58 1425.87L1216.48 1423.85L1203.73 1424.52L1192.98 1429.22L1184.93 1437.95L1177.54 1448.69L1170.16 1462.79L1165.46 1484.28L1162.1 1501.06L1154.72 1517.85L1145.99 1530.6L1133.9 1544.7L1114.43 1557.46L1103.02 1558.8L1092.95 1556.12L1083.55 1544.7L1078.85 1534.63L1070.12 1522.55L1056.02 1512.48L1041.92 1510.46L1029.17 1509.79L1016.41 1516.5L1007.68 1525.23L997.611 1541.35L994.926 1564.84L996.94 1585.66L1006.34 1599.08L1019.1 1612.51L1030.51 1621.24L1039.24 1631.98L1031.18 1644.74L1011.04 1662.87L963.371 1713.22L949.272 1740.75L939.872 1779.02L919.059 1854.88Z" fill="#0B0035" stroke="#06001D" stroke-width="32" mask="url(#path-21-inside-1_39_2)"/>
<path d="M801.567 4512.9H543.755L672.661 2936.48L1357.47 2963.34L1518.61 4400.1V4512.9L1247.37 4531.69L1036.88 3406.45L801.567 4512.9Z" fill="#070137"/>
<path d="M1080.86 3199.67L1036.88 3406.45M1036.88 3406.45L801.567 4512.9H543.755L672.661 2936.48L1357.47 2963.34L1518.61 4400.1V4512.9L1247.37 4531.69L1036.88 3406.45Z" stroke="#06001D" stroke-width="20"/>
<path d="M1334.65 2971.4L937.187 2853.23L973.442 2802.21H1027.15L1070.12 2596.76L1313.16 2269.13L1721.36 2428.92L1334.65 2971.4Z" fill="#D08700" stroke="#06001D" stroke-width="9"/>
<path d="M1204.4 2778.98C1114.03 2797.15 1063.2 2801.42 972.099 2792.41C975.728 2760.78 977.994 2743.08 984.184 2711.84C1000.68 2678.01 1007.67 2660.97 1017.75 2632.62L1044.61 2608.45C1124.88 2602.97 1169 2601.7 1237.97 2619.19C1272.87 2632.97 1283.91 2643.98 1289.96 2668.87L1298.39 2676.93C1292.31 2706.36 1285.66 2719.01 1263.48 2729.3L1247.37 2753.47L1204.4 2778.98Z" fill="#CAC294"/>
<path d="M1142.63 2668.87H1289.96M1289.96 2668.87L1298.39 2676.93C1292.31 2706.36 1285.66 2719.01 1263.48 2729.3M1289.96 2668.87C1283.91 2643.98 1272.87 2632.97 1237.97 2619.19C1169 2601.7 1124.88 2602.97 1044.61 2608.45L1017.75 2632.62C1007.67 2660.97 1000.68 2678.01 984.184 2711.84C977.994 2743.08 975.728 2760.78 972.099 2792.41C1063.2 2801.42 1114.03 2797.15 1204.4 2778.98L1247.37 2753.47L1263.48 2729.3M1150.69 2729.3H1263.48" stroke="#06001D" stroke-width="13"/>
<path d="M556.512 4591.45C568.561 4560.9 569.197 4542.42 564.568 4508.2C655.502 4494.95 706.522 4496 797.539 4501.48C794.675 4521.03 795.959 4529.18 804.253 4537.74C818.74 4553.49 827.021 4556.77 841.85 4560.56C891.779 4574.43 910.986 4586.28 949.272 4605.55C1000.15 4629.39 1015.69 4642.55 1040.58 4665.97C1048.71 4683.03 1052.09 4692.64 1044.61 4710.28H535.699V4668.66C535.793 4640.38 539.42 4623.7 556.512 4591.45Z" fill="#0B0035" stroke="#06001D" stroke-width="15"/>
<path d="M1270.87 4723.71L1264.82 4516.92C1368.03 4515.28 1423.41 4513.75 1513.24 4508.87V4527C1518.79 4549.12 1528.14 4558.5 1551.5 4571.98C1609.11 4592.55 1631.26 4602.69 1672.35 4620.99C1729.42 4636.47 1749.63 4648.48 1775.75 4672.69C1787.62 4691.71 1789.49 4702.92 1785.82 4723.71H1270.87Z" fill="#0B0035" stroke="#06001D" stroke-width="15"/>
</g>
<defs>
<filter id="filter0_d_39_2" x="-4" y="0" width="5008" height="5008" filterUnits="userSpaceOnUse" color-interpolation-filters="sRGB">
<feFlood flood-opacity="0" result="BackgroundImageFix"/>
<feColorMatrix in="SourceAlpha" type="matrix" values="0 0 0 0 0 0 0 0 0 0 0 0 0 0 0 0 0 0 127 0" result="hardAlpha"/>
<feOffset dy="4"/>
<feGaussianBlur stdDeviation="2"/>
<feComposite in2="hardAlpha" operator="out"/>
<feColorMatrix type="matrix" values="0 0 0 0 0 0 0 0 0 0 0 0 0 0 0 0 0 0 0.25 0"/>
<feBlend mode="normal" in2="BackgroundImageFix" result="effect1_dropShadow_39_2"/>
<feBlend mode="normal" in="SourceGraphic" in2="effect1_dropShadow_39_2" result="shape"/>
</filter>
<clipPath id="clip0_39_2">
<rect width="507.939" height="507.631" fill="white" transform="translate(3985.53 3076.13) rotate(5.34102)"/>
</clipPath>
</defs>
</svg>
